<svg width="32" height="32" viewBox="0 0 32 32" fill="none" xmlns="http://www.w3.org/2000/svg">
<path d="M16.1486 31.134C11.7715 31.134 7.8085 29.392 4.94003 26.5758C2.07156 23.7595 0.297264 19.8687 0.297264 15.5712C0.297264 11.2737 2.07146 7.38293 4.94003 4.56657C7.8085 1.75031 11.7713 0.00830078 16.1485 0.00830078V1.56463C12.3507 1.56463 8.74597 3.03085 6.06096 5.66699C3.37564 8.30334 1.88254 11.8422 1.88254 15.5711C1.88254 19.2998 3.37584 22.839 6.06096 25.4752C8.74607 28.1115 12.3506 29.5775 16.1486 29.5775C19.9465 29.5775 23.5512 28.1114 26.2363 25.4752C28.9215 22.8389 30.4147 19.2999 30.4147 15.5711C30.4147 11.8422 28.9214 8.30324 26.2363 5.66699C25.1647 4.6149 23.9465 3.74946 22.6282 3.08893L23.348 1.70237C24.8357 2.44832 26.1875 3.41802 27.3572 4.56647C30.2258 7.38284 32 11.2736 32 15.5711C32 19.8685 30.2257 23.7594 27.3572 26.5757C24.4887 29.392 20.5258 31.1339 16.1486 31.1339V31.134ZM18.9078 0.227662L20.4523 0.577841L20.0957 2.09414L18.5513 1.74406L18.9078 0.227662Z" fill="#CC0EF1"/>
</svg>
