<svg width="45" height="45" viewBox="0 0 45 45" fill="none" xmlns="http://www.w3.org/2000/svg">
<path d="M22.5 3.75C17.5875 3.75 13.5938 7.74375 13.5938 12.6562C13.5938 17.475 17.3625 21.375 22.275 21.5437C22.425 21.525 22.575 21.525 22.6875 21.5437C22.725 21.5437 22.7437 21.5437 22.7812 21.5437C22.8 21.5437 22.8 21.5437 22.8188 21.5437C27.6187 21.375 31.3875 17.475 31.4062 12.6562C31.4062 7.74375 27.4125 3.75 22.5 3.75Z" fill="#0082FE"/>
<path d="M32.0258 26.5313C26.7945 23.0438 18.2633 23.0438 12.9945 26.5313C10.6133 28.125 9.30078 30.2813 9.30078 32.5875C9.30078 34.8938 10.6133 37.0313 12.9758 38.6063C15.6008 40.3688 19.0508 41.25 22.5008 41.25C25.9508 41.25 29.4008 40.3688 32.0258 38.6063C34.3883 37.0125 35.7008 34.875 35.7008 32.55C35.682 30.2438 34.3883 28.1063 32.0258 26.5313ZM26.2508 33.9938H23.907V36.3375C23.907 37.1063 23.2695 37.7438 22.5008 37.7438C21.732 37.7438 21.0945 37.1063 21.0945 36.3375V33.9938H18.7508C17.982 33.9938 17.3445 33.3563 17.3445 32.5875C17.3445 31.8188 17.982 31.1813 18.7508 31.1813H21.0945V28.8375C21.0945 28.0688 21.732 27.4313 22.5008 27.4313C23.2695 27.4313 23.907 28.0688 23.907 28.8375V31.1813H26.2508C27.0195 31.1813 27.657 31.8188 27.657 32.5875C27.657 33.3563 27.0195 33.9938 26.2508 33.9938Z" fill="#0082FE"/>
</svg>
