<svg width="28" height="24" viewBox="0 0 28 24" fill="none" xmlns="http://www.w3.org/2000/svg">
<path d="M18.1767 11.9999C18.1767 13.9799 16.31 15.5799 14 15.5799C11.69 15.5799 9.82333 13.9799 9.82333 11.9999C9.82333 10.0199 11.69 8.41992 14 8.41992C16.31 8.41992 18.1767 10.0199 18.1767 11.9999Z" stroke="white" stroke-width="1.5" stroke-linecap="round" stroke-linejoin="round"/>
<path d="M14 20.2702C18.1183 20.2702 21.9567 18.1902 24.6283 14.5902C25.6783 13.1802 25.6783 10.8102 24.6283 9.40021C21.9567 5.80021 18.1183 3.72021 14 3.72021C9.88167 3.72021 6.04333 5.80021 3.37167 9.40021C2.32167 10.8102 2.32167 13.1802 3.37167 14.5902C6.04333 18.1902 9.88167 20.2702 14 20.2702Z" stroke="white" stroke-width="1.5" stroke-linecap="round" stroke-linejoin="round"/>
</svg>
