<svg width="185" height="56" viewBox="0 0 185 56" fill="none" xmlns="http://www.w3.org/2000/svg">
<path d="M6.67205 50.8251H5.02808V54.238H3.92449V46.4817H5.02808V49.8502H6.69452L9.17171 46.4817H10.3765L7.56157 50.238L10.5117 54.2381H9.22813L6.67205 50.8253V50.8251ZM21.6332 46.4816L18.1314 52.875C17.8537 53.3848 17.5271 53.7653 17.1518 54.0163C16.7764 54.2674 16.3672 54.393 15.9244 54.393C15.5791 54.393 15.2264 54.3155 14.866 54.1603L15.1588 53.2738C15.4366 53.3698 15.6843 53.4179 15.902 53.4179C16.3975 53.4179 16.8066 53.1594 17.1293 52.6422L17.3096 52.3652L14.1342 46.4815H15.3391L17.895 51.4012L20.5186 46.4815H21.6333L21.6332 46.4816ZM32.6084 46.4816V54.2379H31.5049V47.4456H28.0143L27.9355 49.717C27.898 50.7882 27.8098 51.6562 27.6709 52.3209C27.5321 52.9857 27.3124 53.4862 27.0122 53.8222C26.7118 54.1584 26.3065 54.3264 25.7961 54.3264C25.5634 54.3264 25.327 54.2969 25.0867 54.2379L25.1655 53.2516C25.2856 53.2813 25.4057 53.2961 25.5257 53.2961C25.8486 53.2961 26.1076 53.1686 26.3028 52.9138C26.498 52.6589 26.6443 52.2765 26.7419 51.767C26.8395 51.2573 26.9033 50.5851 26.9333 49.7503L27.0571 46.4816H32.6083H32.6084ZM41.9846 49.1852C42.9229 49.1852 43.6416 49.3919 44.1409 49.8057C44.64 50.2194 44.8897 50.8288 44.8897 51.634C44.8897 52.4834 44.6213 53.1299 44.0846 53.5731C43.5478 54.0163 42.7804 54.2379 41.782 54.2379H38.5277V46.4816H39.6426V49.1852H41.9847H41.9846ZM41.7368 53.3624C42.39 53.3624 42.891 53.2165 43.2401 52.9248C43.5892 52.633 43.7637 52.2101 43.7637 51.6562C43.7637 50.5925 43.0882 50.0606 41.7369 50.0606H39.6426V53.3624H41.7369H41.7368ZM54.6713 47.4455H51.9688V54.2377H50.8653V47.4455H48.1742V46.4815H54.6713V47.4455ZM65.6239 46.4815L62.1221 52.8749C61.8443 53.3846 61.5178 53.7651 61.1425 54.0161C60.767 54.2673 60.3579 54.3929 59.915 54.3929C59.5697 54.3929 59.217 54.3154 58.8566 54.1602L59.1495 53.2737C59.4273 53.3697 59.6749 53.4178 59.8927 53.4178C60.3881 53.4178 60.7973 53.1593 61.12 52.6421L61.3002 52.3651L58.1249 46.4813H59.3297L61.8857 51.4011L64.5093 46.4813H65.624L65.6239 46.4815ZM73.3224 46.4815C74.3434 46.4815 75.1465 46.7216 75.732 47.2018C76.3175 47.6819 76.6103 48.3429 76.6103 49.185C76.6103 50.0272 76.3175 50.6882 75.732 51.1683C75.1465 51.6486 74.3432 51.8886 73.3224 51.8886H71.3743V54.2376H70.2482V46.4813H73.3224V46.4815ZM73.2885 50.9248C74.0016 50.9248 74.546 50.7751 74.9213 50.476C75.2966 50.1768 75.4842 49.7466 75.4842 49.1852C75.4842 48.6238 75.2966 48.1935 74.9213 47.8944C74.546 47.5951 74.0018 47.4456 73.2885 47.4456H71.3743V50.9249H73.2885V50.9248ZM88.4187 46.4815V54.2377H87.2927V50.7807H82.7661V54.2377H81.64V46.4815H82.7661V49.8167H87.2927V46.4815H88.4187ZM97.7949 49.185C98.7332 49.185 99.4519 49.3918 99.9512 49.8056C100.45 50.2193 100.7 50.8287 100.7 51.6339C100.7 52.4833 100.432 53.1298 99.8949 53.5729C99.3581 54.0161 98.5907 54.2377 97.5923 54.2377H94.338V46.4815H95.4529V49.185H97.795H97.7949ZM97.5471 53.3623C98.2003 53.3623 98.7013 53.2164 99.0504 52.9247C99.3995 52.6329 99.574 52.21 99.574 51.6561C99.574 50.5924 98.8985 50.0605 97.5472 50.0605H95.4529V53.3623H97.5472H97.5471ZM101.95 46.4813H103.065V54.2376H101.95V46.4813ZM108.984 46.4813H110.099V52.4647L114.76 46.4813H115.796V54.2376H114.693V48.2653L110.02 54.2376H108.984V46.4813ZM112.373 45.9385C111.758 45.9385 111.283 45.8073 110.949 45.5451C110.615 45.2829 110.444 44.9079 110.437 44.4204H111.236C111.243 44.7086 111.347 44.932 111.546 45.0907C111.744 45.2496 112.02 45.3289 112.373 45.3289C112.711 45.3289 112.983 45.2496 113.189 45.0907C113.396 44.9319 113.503 44.7085 113.51 44.4204H114.299C114.291 44.9005 114.12 45.2736 113.786 45.5396C113.452 45.8055 112.981 45.9385 112.373 45.9385H112.373ZM136.35 53.2737V55.9994H135.303V54.2377H128.513V46.4815H129.628V53.2737H134.019V46.4815H135.134V53.2737H136.35H136.35ZM147.032 53.2737V54.2377H141.312V46.4815H146.874V47.4455H142.438V49.8277H146.39V50.7696H142.438V53.2737H147.032H147.032ZM159.043 46.4815V54.2377H157.917V50.7807H153.39V54.2377H152.264V46.4815H153.39V49.8167H157.917V46.4815H159.043ZM170.379 47.4455H167.676V54.2377H166.573V47.4455H163.881V46.4815H170.379V47.4455ZM178.291 46.4815C179.312 46.4815 180.115 46.7216 180.701 47.2018C181.286 47.6819 181.579 48.3429 181.579 49.185C181.579 50.0272 181.286 50.6882 180.701 51.1683C180.115 51.6486 179.312 51.8886 178.291 51.8886H176.343V54.2376H175.217V46.4813H178.291V46.4815ZM178.257 50.9248C178.97 50.9248 179.515 50.7751 179.89 50.476C180.265 50.1768 180.453 49.7466 180.453 49.1852C180.453 48.6238 180.265 48.1935 179.89 47.8944C179.515 47.5951 178.97 47.4456 178.257 47.4456H176.343V50.9249H178.257V50.9248Z" fill="white"/>
<path fill-rule="evenodd" clip-rule="evenodd" d="M47.2318 19.377H49.2H67.8972V19.3773C72.7885 19.3773 76.7535 15.4754 76.7535 10.6621C76.7535 5.84896 72.7885 1.94714 67.8972 1.94714V1.94689H57.0724V0.0102539H67.8972V0.0103754C73.8756 0.0103754 78.7218 4.77926 78.7218 10.6621C78.7218 16.4382 74.0498 21.14 68.2216 21.3088V21.3139H67.8974H67.8972V21.3138H49.2V38.7444H47.2318V21.3138V19.377Z" fill="white"/>
<path d="M33.5956 33.0629C30.0341 36.5664 25.1146 38.7336 19.6808 38.7336C14.2462 38.7336 9.32603 36.5657 5.76438 33.061C2.20273 29.5563 -0.000137329 24.7145 -0.000137329 19.3666C-0.000137329 14.0189 2.20273 9.17671 5.76438 5.67215C9.31627 2.1767 14.22 0.0114187 19.6371 -0.000244141V1.94368C14.9409 1.95523 10.4823 3.77827 7.16118 7.04654C3.82942 10.3251 1.97532 14.7292 1.97532 19.3665C1.97532 24.0035 3.82954 28.4079 7.16118 31.6862C10.4928 34.9648 14.9684 36.7893 19.6807 36.7893C24.392 36.7893 28.8666 34.9657 32.198 31.6887L33.5955 33.0628L33.5956 33.0629ZM22.6303 0.0103253H24.5984V1.94709H22.6303V0.0103253Z" fill="white"/>
<path d="M76.7691 0.0102539C82.2037 0.0102539 87.1241 2.17808 90.6858 5.68277C94.2473 9.18758 96.4503 14.0294 96.4503 19.3774C96.4503 24.7253 94.2474 29.5672 90.6858 33.072C87.1241 36.5767 82.2038 38.7445 76.7691 38.7445C71.3344 38.7445 66.414 36.5767 62.8524 33.072C59.2908 29.5672 57.0878 24.7254 57.0878 19.3774C57.0878 14.0295 59.2908 9.18758 62.8524 5.68277C66.414 2.17796 71.3343 0.0102539 76.7691 0.0102539ZM76.7691 1.94701C72.0536 1.94701 67.578 3.77152 64.2441 7.05218C60.9102 10.333 59.0561 14.7369 59.0561 19.3773C59.0561 24.0176 60.9102 28.4217 64.2441 31.7023C67.5781 34.9831 72.0535 36.8076 76.7691 36.8076C81.4847 36.8076 85.9602 34.9829 89.294 31.7023C92.6281 28.4215 94.4821 24.0176 94.4821 19.3773C94.4821 14.737 92.6279 10.3328 89.294 7.05218C85.9602 3.7714 81.4847 1.94701 76.7691 1.94701Z" fill="white"/>
<path d="M88.5623 38.7443V1.94689H88.5622V0.0100098H88.5623H90.5305H114.148V1.94689H90.5305V38.7443H88.5623Z" fill="white"/>
<path d="M153.51 21.3139H133.829V38.7443H131.861V21.3139V19.3771V0.0102539H133.829V19.3771H153.51V0.0102539H155.478V19.3771V21.3139V38.7443H153.51V21.3139Z" fill="white"/>
<path d="M123.988 38.7443V3.65526L104.307 38.7443H102.339V5.82017H104.307V34.7362L123.785 0.0100098H125.956V0.0102527V0.146441V38.7443H123.988Z" fill="white"/>
<path fill-rule="evenodd" clip-rule="evenodd" d="M19.6736 7.74683C22.9377 7.74683 25.8923 9.05015 28.0297 11.1566L26.6375 12.5257C24.8563 10.7701 22.3938 9.68371 19.6734 9.68371C14.2387 9.68371 9.83283 14.0192 9.83283 19.3673C9.83283 24.7153 14.2387 29.0507 19.6734 29.0507C22.3914 29.0507 24.8518 27.9666 26.6327 26.2137L28.0238 27.5837C25.8868 29.6867 22.9346 30.9876 19.6736 30.9876C13.1519 30.9876 7.86491 25.785 7.86491 19.3674C7.86491 12.9497 13.1519 7.74707 19.6736 7.74707V7.74683Z" fill="white"/>
<path d="M165.319 38.7445C159.884 38.7445 154.964 36.5767 151.402 33.072C147.841 29.5673 145.638 24.7254 145.638 19.3774C145.638 14.0295 147.84 9.18758 151.402 5.68277C154.964 2.17808 159.884 0.0102539 165.319 0.0102539V1.94701C160.603 1.94701 156.128 3.77164 152.794 7.05218C149.46 10.333 147.606 14.7369 147.606 19.3773C147.606 24.0175 149.46 28.4218 152.794 31.7025C156.128 34.9831 160.603 36.8075 165.319 36.8075C170.034 36.8075 174.51 34.983 177.844 31.7025C181.178 28.4217 183.032 24.0176 183.032 19.3773C183.032 14.7369 181.178 10.3328 177.844 7.05218C176.513 5.74291 175.001 4.66592 173.364 3.84393L174.258 2.11843C176.105 3.04672 177.783 4.25346 179.235 5.68265C182.797 9.18745 185 14.0292 185 19.3773C185 24.7252 182.797 29.5672 179.235 33.0719C175.674 36.5767 170.754 38.7444 165.319 38.7444V38.7445ZM168.745 0.283237L170.662 0.719015L170.219 2.60597L168.302 2.17031L168.745 0.283237Z" fill="white"/>
<path d="M53.1363 1.94689H41.3275V38.7444H39.3594V1.94689H27.5506V0.0102539H39.3594H41.3275H53.1363V1.94689Z" fill="white"/>
</svg>
