<svg width="33" height="32" viewBox="0 0 33 32" fill="none" xmlns="http://www.w3.org/2000/svg">
<path d="M16.8302 0.00830078C21.2073 0.00830078 25.1703 1.75031 28.0388 4.56657C30.9073 7.38293 32.6816 11.2737 32.6816 15.5712C32.6816 19.8686 30.9074 23.7594 28.0388 26.5758C25.1703 29.392 21.2074 31.134 16.8302 31.134C12.4531 31.134 8.49021 29.392 5.62164 26.5758C2.75317 23.7594 0.978867 19.8687 0.978867 15.5712C0.978867 11.2737 2.75317 7.38293 5.62164 4.56657C8.49021 1.75021 12.453 0.00830078 16.8302 0.00830078ZM16.8302 1.56463C13.0324 1.56463 9.42767 3.03075 6.74256 5.66699C4.05744 8.30334 2.56414 11.8422 2.56414 15.5711C2.56414 19.2999 4.05744 22.8389 6.74256 25.4751C9.42777 28.1115 13.0323 29.5776 16.8302 29.5776C20.6282 29.5776 24.2328 28.1113 26.9179 25.4751C29.6032 22.8388 31.0964 19.2999 31.0964 15.5711C31.0964 11.8423 29.603 8.30324 26.9179 5.66699C24.2328 3.03065 20.6282 1.56463 16.8302 1.56463Z" fill="#CC0EF1"/>
</svg>
