<svg width="28" height="32" viewBox="0 0 28 32" fill="none" xmlns="http://www.w3.org/2000/svg">
<path d="M27.058 26.5685C24.1896 29.3838 20.2274 31.1253 15.851 31.1253C11.4739 31.1253 7.5112 29.3832 4.64263 26.567C1.77406 23.7507 -0.000137329 19.86 -0.000137329 15.5626C-0.000137329 11.2652 1.77406 7.37422 4.64263 4.55805C7.50335 1.74921 11.4529 0.00924986 15.8158 -0.00012207V1.56196C12.0335 1.57124 8.4425 3.03619 5.76763 5.66248C3.0842 8.29706 1.59091 11.836 1.59091 15.5625C1.59091 19.2886 3.0843 22.8278 5.76763 25.4622C8.45095 28.0968 12.0556 29.5629 15.8509 29.5629C19.6454 29.5629 23.2493 28.0975 25.9324 25.4642L27.0579 26.5684L27.058 26.5685ZM18.2265 0.00837124H19.8117V1.5647H18.2265V0.00837124Z" fill="#CC0EF1"/>
</svg>
