<svg width="184" height="218" viewBox="0 0 184 218" fill="none" xmlns="http://www.w3.org/2000/svg">
<path d="M184 186.085C164.494 205.803 137.55 218 107.791 218C78.0255 218 51.0779 205.799 31.5717 186.074C12.0647 166.349 0 139.098 0 109C0 78.9013 12.0647 51.6497 31.5717 31.9251C51.0249 12.2524 77.882 0.0661176 107.552 0.000610352V10.9409C81.8302 11.0058 57.4119 21.266 39.2223 39.6609C20.975 58.1129 10.8197 82.9004 10.8197 109C10.8197 135.097 20.975 159.885 39.2223 178.337C57.469 196.789 81.9814 207.059 107.791 207.059C133.594 207.059 158.101 196.795 176.347 178.351L184 186.085V186.085Z" fill="#CC0EF1"/>
<path fill-rule="evenodd" clip-rule="evenodd" d="M107.749 43.6042C125.626 43.6042 141.808 50.9391 153.515 62.7945L145.891 70.4993C136.135 60.6179 122.648 54.5041 107.749 54.5041C77.9833 54.5041 53.8531 78.9047 53.8531 109.005C53.8531 139.104 77.9831 163.505 107.749 163.505C122.635 163.505 136.111 157.403 145.864 147.537L153.483 155.248C141.779 167.084 125.61 174.405 107.749 174.405C72.03 174.405 43.0742 145.125 43.0742 109.005C43.0742 72.885 72.0302 43.6044 107.749 43.6044V43.6042Z" fill="#0082FE"/>
<path d="M134.721 0.000488281H123.941V10.9005H134.721V0.000488281Z" fill="#CC0EF1"/>
</svg>
