<svg width="40" height="40" viewBox="0 0 40 40" fill="none" xmlns="http://www.w3.org/2000/svg">
<path d="M35.5293 14.1228C35.8646 14.7285 35.3859 15.4166 34.6936 15.4166H4.33203C3.77975 15.4166 3.33203 14.9689 3.33203 14.4166V10.7C3.33203 6.63331 6.63203 3.33331 10.6987 3.33331H14.5654C17.282 3.33331 18.132 4.21665 19.2154 5.66665L21.5487 8.76665C22.0654 9.44998 22.132 9.53331 23.0987 9.53331H27.7487C31.095 9.53331 34.0132 11.3841 35.5293 14.1228Z" fill="#0082FE"/>
<path d="M35.6354 17.9162C36.1864 17.9162 36.6335 18.3619 36.6354 18.9128L36.6654 27.75C36.6654 32.6666 32.6654 36.6666 27.7487 36.6666H12.2487C7.33203 36.6666 3.33203 32.6666 3.33203 27.75V18.9166C3.33203 18.3644 3.77974 17.9166 4.33202 17.9166L35.6354 17.9162Z" fill="#0082FE"/>
</svg>
