<svg width="84" height="43" viewBox="0 0 84 43" fill="none" xmlns="http://www.w3.org/2000/svg">
<g clip-path="url(#clip0_1135_1985)">
<rect width="82.7951" height="42.26" transform="translate(0.481445)" fill="#EFEFEF"/>
<path d="M21.0619 22.7906C21.0619 21.8332 21.0277 21.3594 21.0336 21.3594H21.0392C21.0448 21.3594 21.3684 21.9132 21.4023 21.9711L21.8755 22.7787H22.3772L22.8512 21.9711C22.8863 21.9132 23.2088 21.3594 23.2155 21.3594H23.2203C23.227 21.3594 23.1923 21.8332 23.1923 22.7906V23.777H24.1439V19.7371H23.2326L22.4766 20.9604C22.1821 21.4405 22.1363 21.5435 22.1295 21.5435H22.1244C22.1177 21.5435 22.0722 21.4405 21.7785 20.9604L21.0213 19.7371H20.1104V23.777H21.0619V22.7906Z" fill="#24272A"/>
<path d="M27.4212 22.9009C26.7691 22.9009 26.3364 22.4324 26.3364 21.7572C26.3364 21.0758 26.7691 20.6137 27.4212 20.6137C28.0782 20.6137 28.5123 21.0758 28.5123 21.7572C28.5123 22.4324 28.0782 22.9009 27.4212 22.9009ZM27.4212 19.6563C26.2616 19.6563 25.3262 20.5395 25.3262 21.7572C25.3262 22.9739 26.2616 23.8574 27.4212 23.8574C28.5808 23.8574 29.5222 22.9739 29.5222 21.7572C29.5222 20.5395 28.5808 19.6563 27.4212 19.6563Z" fill="#24272A"/>
<path d="M42.0143 20.6137C42.6735 20.6137 43.1062 21.0758 43.1062 21.7572C43.1062 22.4324 42.6735 22.9009 42.0143 22.9009C41.3633 22.9009 40.9307 22.4324 40.9307 21.7572C40.9307 21.0758 41.3633 20.6137 42.0143 20.6137ZM42.0143 23.8574C43.1747 23.8574 44.1145 22.9739 44.1145 21.7572C44.1145 20.5395 43.1747 19.6563 42.0143 19.6563C40.8554 19.6563 39.9199 20.5395 39.9199 21.7572C39.9199 22.9739 40.8554 23.8574 42.0143 23.8574Z" fill="#24272A"/>
<path d="M46.2676 22.9638V22.0512H46.9425C47.2485 22.0512 47.469 22.2247 47.469 22.507C47.469 22.7731 47.2664 22.9638 46.9425 22.9638H46.2676ZM46.2676 20.5508H46.8501C47.1108 20.5508 47.3007 20.7127 47.3007 20.9317C47.3007 21.1507 47.1108 21.3126 46.8501 21.3126H46.2676V20.5508ZM48.4841 22.5531C48.4841 22.1436 48.1556 21.7056 47.7743 21.6005V21.5957C48.0171 21.5088 48.2764 21.1861 48.2764 20.8048C48.2764 20.2164 47.7743 19.7371 47.0526 19.7371H45.2979V23.777H47.0423C48.0395 23.777 48.4841 23.2295 48.4841 22.5531Z" fill="#24272A"/>
<path d="M66.035 22.6526C66.4052 22.1436 66.9473 21.3763 66.9518 21.3763H66.9585C66.9646 21.3763 66.9518 21.9993 66.9518 22.8823V23.777H67.9223V19.7371H67.0114L66.1504 20.8912C65.8906 21.2382 65.2738 22.1089 65.2671 22.1089H65.2612C65.2568 22.1089 65.2671 21.3941 65.2671 20.6613V19.7371H64.2988V23.777H65.2097L66.035 22.6526Z" fill="#24272A"/>
<path d="M60.9342 22.6526C61.3035 22.1436 61.8458 21.3763 61.8518 21.3763H61.8577C61.8636 21.3763 61.8518 21.9993 61.8518 22.8823V23.777H62.8222V19.7371H61.9106L61.0497 20.8912C60.7897 21.2382 60.1731 22.1089 60.1678 22.1089H60.1611C60.1558 22.1089 60.1678 21.3941 60.1678 20.6613V19.7371H59.1973V23.777H60.1097L60.9342 22.6526Z" fill="#24272A"/>
<path d="M23.561 37.4942H22.5906V40.5642L22.5896 40.6297L22.5716 40.6268H21.0794V37.4942H20.1104V41.5332H21.0794H22.5716H22.5906H23.561H23.567V42.26H24.4437V41.5332H24.4465V40.5642H23.561V37.4942Z" fill="#24272A"/>
<path d="M32.4801 39.0575H30.968V37.4943H29.999V41.5332H30.968V39.9632H32.4801V41.5332H33.4498V37.4943H32.4801V39.0575Z" fill="#24272A"/>
<path d="M34.5352 38.3991H35.7461V41.5332H36.7158V38.3991H37.9447V37.4943H34.5352V38.3991Z" fill="#24272A"/>
<path d="M21.0794 29.5215H22.5906V32.6555H23.561V28.615H22.5906H21.0794H20.1104V32.6555H21.0794V29.5215Z" fill="#24272A"/>
<path d="M30.133 30.6349C30.133 29.9548 30.5663 29.4931 31.218 29.4931C31.8763 29.4931 32.3083 29.9548 32.3083 30.6349C32.3083 31.3105 31.8763 31.7782 31.218 31.7782C30.5663 31.7782 30.133 31.3105 30.133 30.6349ZM33.3182 30.6349C33.3182 29.4172 32.3798 28.5339 31.218 28.5339C30.0581 28.5339 29.123 29.4172 29.123 30.6349C29.123 31.8534 30.0581 32.7367 31.218 32.7367C32.3798 32.7367 33.3182 31.8534 33.3182 30.6349Z" fill="#24272A"/>
<path d="M78.6211 27.1226H77.0303V27.9642H78.6211V27.1226Z" fill="#24272A"/>
<path d="M44.3445 31.7782C43.6928 31.7782 43.2594 31.3105 43.2594 30.6349C43.2594 29.9548 43.6928 29.4931 44.3445 29.4931C45.0021 29.4931 45.4349 29.9548 45.4349 30.6349C45.4349 31.3105 45.0021 31.7782 44.3445 31.7782ZM44.3445 28.5339C43.3375 28.5339 42.5019 29.2197 42.2979 30.1926H41.4846V28.615H40.5156V32.6555H41.4846V31.1064H42.3083C42.5272 32.0537 43.3532 32.7367 44.3445 32.7367C45.5041 32.7367 46.4448 31.8534 46.4448 30.6349C46.4448 29.4172 45.5041 28.5339 44.3445 28.5339Z" fill="#24272A"/>
<path d="M55.4801 31.749H53.4761V31.0333H54.9202V30.2126H53.4761V29.5215H55.4445V28.615H52.5078V32.6555H55.4801V31.749Z" fill="#24272A"/>
<path d="M28.5661 40.6275H26.5624V39.9111H28.0068V39.0911H26.5624V38.3999H28.5307V37.4928H25.5938V41.5332H28.5661V40.6275Z" fill="#24272A"/>
<path d="M58.4345 30.6415H57.8796V29.5215H58.4345C58.8084 29.5215 59.034 29.7583 59.034 30.0591C59.034 30.3593 58.8426 30.6423 58.4688 30.6423L58.4345 30.6415ZM58.4509 28.615H56.9092V32.6555H57.8796V31.5479H58.4509C59.4437 31.5479 60.044 30.8665 60.044 30.0011C60.044 29.1349 59.4437 28.615 58.4509 28.615Z" fill="#24272A"/>
<path d="M26.554 30.6499H25.9992V29.5297H26.554C26.928 29.5297 27.1541 29.7658 27.1541 30.0667C27.1541 30.3668 26.9622 30.6499 26.5883 30.6499H26.554ZM26.5697 28.6226H25.0283V32.663H25.9992V31.5555H26.5697C27.5633 31.5555 28.1632 30.874 28.1632 30.0085C28.1632 29.1424 27.5633 28.6226 26.5697 28.6226Z" fill="#24272A"/>
<path d="M40.5584 39.5229H40.0035V38.4035H40.5584C40.9322 38.4035 41.1579 38.6396 41.1579 38.9405C41.1579 39.2406 40.9666 39.5237 40.5926 39.5237L40.5584 39.5229ZM40.574 37.4964H39.0322V41.5376H40.0035V40.4293H40.574C41.5676 40.4293 42.1679 39.7479 42.1679 38.8824C42.1679 38.0163 41.5676 37.4964 40.574 37.4964Z" fill="#24272A"/>
<path d="M69.6855 28.615H68.4969L67.58 29.5862C67.1696 29.9959 67.0825 30.1389 67.0773 30.1389H67.0721C67.0654 30.1389 67.0825 29.9437 67.0825 29.2734V28.615H66.1143V32.6555H67.0825V31.3172L67.4236 30.9752L68.6473 32.6555H69.7897L68.0649 30.3347L69.6855 28.615Z" fill="#24272A"/>
<path d="M58.1253 19.7314H56.9374L56.0205 20.703C55.6101 21.1126 55.523 21.2549 55.5178 21.2549H55.5126C55.5059 21.2549 55.5229 21.0597 55.5229 20.3898V19.7314H54.5547V23.7717H55.5229V22.4331L55.8641 22.0916L57.0877 23.7717H58.2296L56.5053 21.4511L58.1253 19.7314Z" fill="#24272A"/>
<path d="M39.2843 19.7482H38.0964L37.1795 20.7201C36.7684 21.1294 36.682 21.2721 36.6769 21.2721H36.6716C36.6648 21.2721 36.682 21.0769 36.682 20.4066V19.7482H35.7139V23.7888H36.682V22.4503L37.0231 22.1088L38.2469 23.7888H39.3886L37.6637 21.4684L39.2843 19.7482Z" fill="#24272A"/>
<path d="M78.7341 28.615L77.8746 29.7687C77.6153 30.1164 76.9964 30.988 76.9919 30.988H76.986C76.9793 30.988 76.9919 30.2722 76.9919 29.5386V28.615H76.0215V32.6555H76.9346L77.7591 31.5301C78.1286 31.0229 78.6715 30.2544 78.6759 30.2544H78.6819C78.6885 30.2544 78.6759 30.8776 78.6759 31.7611V32.6555H79.6457V28.615H78.7341Z" fill="#24272A"/>
<path d="M66.9014 18.2445H65.3105V19.0865H66.9014V18.2445Z" fill="#24272A"/>
<path d="M67.0142 19.7371L66.1547 20.8911C65.8949 21.2385 65.2767 22.1095 65.2722 22.1095H65.2656C65.2596 22.1095 65.2722 21.3941 65.2722 20.6606V19.7371H64.3018V23.7777H65.2141L66.0393 22.6522C66.4087 22.1449 66.9509 21.3762 66.9561 21.3762H66.9622C66.9681 21.3762 66.9561 21.9997 66.9561 22.883V23.7777H67.9259V19.7371H67.0142Z" fill="#24272A"/>
<path d="M72.7725 29.7687C72.5148 30.1164 71.8973 30.988 71.8915 30.988H71.8855C71.8787 30.988 71.8915 30.2722 71.8915 29.5386V28.615H70.9209V32.6555H71.8341L72.6586 31.5301C73.0279 31.0229 73.5702 30.2544 73.576 30.2544H73.5813C73.5889 30.2544 73.576 30.8776 73.576 31.7611V32.6555H74.5466V28.615H73.6334L72.7725 29.7687Z" fill="#24272A"/>
<path d="M37.5199 31.749H36.2657V31.6858L36.4466 29.4522H37.5199V31.6858V31.749ZM38.5105 31.6858V28.615H35.4562L35.2751 31.6858H34.2949V32.6555H34.2987V33.5193H35.2685V32.6555H35.2751H35.2952H36.2455H36.2657H37.3381H37.359H38.3079H38.3294H38.3346V33.5193H39.3044V32.6555H39.3089V31.6858H38.5105Z" fill="#24272A"/>
<path d="M50.3909 31.2933C50.224 31.5704 49.8545 31.767 49.4672 31.767C48.8379 31.767 48.3829 31.3335 48.3829 30.6349C48.3829 29.972 48.7983 29.4931 49.4672 29.4931C49.7852 29.4931 50.1324 29.6369 50.3162 29.8678L51.1609 29.3851C50.7796 28.8654 50.168 28.5339 49.4672 28.5339C48.3083 28.5339 47.3721 29.4172 47.3721 30.6349C47.3721 31.8534 48.3083 32.7367 49.4672 32.7367C50.2262 32.7367 50.8801 32.3583 51.2502 31.7676L50.4459 31.3075L50.3909 31.2933Z" fill="#24272A"/>
<path d="M52.4555 22.4134C52.2893 22.6904 51.9192 22.8867 51.5319 22.8867C50.9033 22.8867 50.4482 22.4536 50.4482 21.7554C50.4482 21.0926 50.8632 20.6129 51.5319 20.6129C51.8507 20.6129 52.197 20.7566 52.3817 20.9878L53.2255 20.5053C52.845 19.9855 52.2327 19.6543 51.5319 19.6543C50.373 19.6543 49.4375 20.5376 49.4375 21.7554C49.4375 22.9735 50.373 23.8567 51.5319 23.8567C52.2908 23.8567 52.9455 23.478 53.3149 22.8875L52.4555 22.4134Z" fill="#24272A"/>
<path d="M33.6011 22.4153C33.435 22.6924 33.0647 22.8887 32.6775 22.8887C32.0489 22.8887 31.5939 22.4555 31.5939 21.7572C31.5939 21.0944 32.0087 20.6152 32.6775 20.6152C32.9963 20.6152 33.3427 20.7586 33.5273 20.9898L34.3711 20.5071C33.9905 19.9873 33.3784 19.6563 32.6775 19.6563C31.5185 19.6563 30.583 20.5395 30.583 21.7572C30.583 22.9754 31.5185 23.859 32.6775 23.859C33.4364 23.859 34.0903 23.4804 34.4605 22.8898L33.6011 22.4153Z" fill="#24272A"/>
<path d="M64.0098 31.2927C63.8438 31.5697 63.4735 31.7663 63.0864 31.7663C62.4569 31.7663 62.0018 31.3327 62.0018 30.635C62.0018 29.9721 62.4175 29.4932 63.0864 29.4932C63.4043 29.4932 63.7506 29.6369 63.9361 29.8679L64.7792 29.3852C64.3985 28.8654 63.7863 28.5339 63.0864 28.5339C61.9274 28.5339 60.9912 29.4173 60.9912 30.635C60.9912 31.8535 61.9274 32.736 63.0864 32.736C63.8445 32.736 64.4991 32.3584 64.8693 31.767L64.0098 31.2927Z" fill="#24272A"/>
<path d="M15.7465 2.67029e-05V7.63247H8.11374V15.2651H0.481445V27.4562H5.03981V19.8234H12.672V12.1907H20.3048V4.5585H27.9371V2.67029e-05H15.7465Z" fill="#24272A"/>
</g>
<defs>
<clipPath id="clip0_1135_1985">
<rect width="82.7951" height="42.26" fill="white" transform="translate(0.481445)"/>
</clipPath>
</defs>
</svg>
