<svg width="92" height="36" viewBox="0 0 92 36" fill="none" xmlns="http://www.w3.org/2000/svg">
<g clip-path="url(#clip0_1135_1625)">
<rect width="91.4195" height="35.3604" transform="translate(0.525452 0.449707)" fill="#010938"/>
<path d="M36.6315 0.48962V18.1685L18.6094 35.8101V18.0902L9.55668 26.9531L0.525452 18.1132L18.5691 0.449673L36.6315 0.48962Z" fill="white"/>
<path d="M40.7653 0.577904H42.2909L44.3334 5.45776H44.4133L46.4558 0.577904H47.9813V7.3125H46.7858V2.68586H46.7217L44.8192 7.29246H43.927L42.0245 2.67591H41.9608V7.3125H40.7653V0.577904Z" fill="white"/>
<path d="M54.2336 3.94531C54.2336 3.4353 54.1521 3.00403 53.99 2.65152C53.827 2.30002 53.6035 2.03327 53.3167 1.85229C53.0289 1.67182 52.6994 1.58069 52.325 1.58069C51.9517 1.58069 51.6205 1.67182 51.3338 1.85229C51.0476 2.03327 50.8234 2.30002 50.6604 2.65152C50.499 3.00403 50.4175 3.4353 50.4175 3.94531C50.4175 4.45635 50.499 4.88762 50.6604 5.24001C50.8234 5.5915 51.0476 5.85876 51.3338 6.03923C51.6205 6.21971 51.9517 6.30943 52.325 6.30943C52.6994 6.30943 53.0289 6.21971 53.3167 6.03923C53.6035 5.85876 53.827 5.5915 53.99 5.24001C54.1521 4.88762 54.2336 4.45635 54.2336 3.94531ZM55.4865 3.94531C55.4865 4.67166 55.3479 5.29297 55.0713 5.80848C54.7948 6.32449 54.4185 6.71977 53.9432 6.99405C53.467 7.2682 52.927 7.40527 52.325 7.40527C51.7225 7.40527 51.1841 7.2682 50.7078 6.99251C50.231 6.71734 49.8556 6.32245 49.5791 5.8049C49.3015 5.28889 49.1646 4.66975 49.1646 3.94531C49.1646 3.21986 49.3015 2.59919 49.5791 2.08317C49.8556 1.56716 50.231 1.17176 50.7078 0.897607C51.1841 0.623455 51.7225 0.486252 52.325 0.486252C52.927 0.486252 53.467 0.623455 53.9432 0.897607C54.4185 1.17176 54.7948 1.56716 55.0713 2.08317C55.3479 2.59919 55.4865 3.21986 55.4865 3.94531Z" fill="white"/>
<path d="M62.5587 2.851H61.3021C61.266 2.64909 61.1998 2.46951 61.103 2.31253C61.0078 2.15694 60.8881 2.02331 60.7439 1.91368C60.6018 1.80404 60.4388 1.72172 60.2549 1.66544C60.0732 1.60953 59.8771 1.58069 59.6657 1.58069C59.2928 1.58069 58.9603 1.67284 58.6714 1.85637C58.3821 2.03927 58.1569 2.30602 57.9925 2.65752C57.8295 3.01054 57.748 3.43926 57.748 3.94531C57.748 4.46133 57.8295 4.89502 57.995 5.24652C58.1595 5.59801 58.3856 5.86323 58.6734 6.04179C58.9612 6.22124 59.2913 6.30943 59.6631 6.30943C59.8683 6.30943 60.062 6.28352 60.2427 6.22966C60.422 6.17631 60.585 6.09654 60.7292 5.99035C60.8738 5.88569 60.9966 5.75602 61.0958 5.60299C61.1947 5.44945 61.2641 5.27396 61.3021 5.07702L62.5587 5.08302C62.5119 5.40363 62.4101 5.70369 62.2541 5.98435C62.0993 6.26514 61.895 6.51287 61.6444 6.72576C61.3939 6.94018 61.1011 7.10623 60.7648 7.22582C60.4281 7.34554 60.0553 7.40527 59.6452 7.40527C59.0418 7.40527 58.5018 7.2682 58.027 6.99405C57.5519 6.71977 57.1775 6.32449 56.905 5.80746C56.6309 5.28991 56.4949 4.66975 56.4949 3.94531C56.4949 3.21986 56.6325 2.59919 56.9075 2.08317C57.1841 1.56716 57.5585 1.17176 58.0332 0.897607C58.5085 0.623455 59.0458 0.486252 59.6452 0.486252C60.0288 0.486252 60.3848 0.538706 60.7139 0.644896C61.0434 0.749553 61.3363 0.904115 61.5951 1.10603C61.8517 1.30896 62.0647 1.55721 62.2317 1.84884C62.3983 2.14201 62.5068 2.47602 62.5587 2.851Z" fill="white"/>
<path d="M40.7653 18.4243V11.6904H43.3453C43.8734 11.6904 44.3181 11.7865 44.6771 11.9794C45.0362 12.1724 45.3082 12.4366 45.4931 12.7732C45.6775 13.1103 45.7707 13.4926 45.7707 13.9198C45.7707 14.3511 45.6775 14.7355 45.4921 15.0705C45.3062 15.4061 45.0322 15.6698 44.6695 15.8607C44.3064 16.0527 43.8597 16.1484 43.3284 16.1484H41.6185V15.1469H43.1604C43.4701 15.1469 43.7216 15.093 43.9193 14.9882C44.1169 14.8836 44.2631 14.7376 44.3583 14.5545C44.4531 14.3701 44.5015 14.1581 44.5015 13.9198C44.5015 13.6805 44.4531 13.4702 44.3583 13.2882C44.2631 13.1062 44.1169 12.9641 43.9177 12.8619C43.7196 12.7607 43.465 12.7099 43.1542 12.7099H42.0117V18.4243H40.7653Z" fill="white"/>
<path d="M47.0177 15.7835H50.6452V16.7641H47.0177V15.7835ZM46.9744 18.4243H45.6435L48.0654 11.6904H49.6051L52.0291 18.4243H50.7003L48.8625 13.0713H48.8075L46.9744 18.4243Z" fill="white"/>
<path d="M55.3377 18.5171C54.8538 18.5171 54.4244 18.4358 54.0501 18.2738C53.6747 18.1102 53.3778 17.8849 53.1613 17.5957C52.9438 17.3065 52.8287 16.9725 52.815 16.5927H54.0781C54.0899 16.7745 54.151 16.9341 54.2625 17.0682C54.375 17.2034 54.5238 17.3075 54.7097 17.3823C54.8957 17.4561 55.1034 17.4935 55.3352 17.4935C55.5808 17.4935 55.7997 17.4521 55.9897 17.3679C56.1802 17.2832 56.3295 17.166 56.4364 17.0138C56.5433 16.8629 56.5969 16.6884 56.5943 16.4915C56.5969 16.287 56.5433 16.1075 56.4329 15.9514C56.3234 15.7959 56.1654 15.6747 55.9576 15.5865C55.7503 15.4992 55.5017 15.4555 55.2104 15.4555H54.6028V14.5146H55.2104C55.4499 14.5146 55.6597 14.4748 55.8405 14.3924C56.0203 14.3118 56.1628 14.1965 56.2648 14.05C56.3677 13.9014 56.4185 13.7294 56.4161 13.535C56.4185 13.3444 56.3753 13.1785 56.2876 13.0363C56.1986 12.8953 56.0738 12.7847 55.9143 12.7059C55.7539 12.6275 55.5664 12.5877 55.3515 12.5877C55.1402 12.5877 54.9455 12.6251 54.7672 12.6999C54.5874 12.7747 54.4439 12.8794 54.3328 13.0164C54.2232 13.1535 54.1663 13.3171 54.1586 13.505H52.9586C52.9678 13.1286 53.0798 12.797 53.2938 12.5104C53.5076 12.2237 53.7944 12.0009 54.1521 11.8398C54.5101 11.6789 54.9125 11.5981 55.3582 11.5981C55.8176 11.5981 56.2164 11.6818 56.5561 11.8499C56.8949 12.0168 57.1571 12.2422 57.343 12.5253C57.529 12.808 57.6222 13.1197 57.6222 13.4626C57.6247 13.8416 57.5111 14.1591 57.2819 14.4164C57.0517 14.6732 56.7506 14.8397 56.3794 14.9194V14.9717C56.8633 15.0381 57.2345 15.2126 57.4934 15.4968C57.7521 15.7799 57.8804 16.1324 57.8779 16.5537C57.8779 16.9301 57.7684 17.2682 57.5509 17.5648C57.3313 17.8609 57.0314 18.0942 56.6504 18.2637C56.2683 18.4323 55.8303 18.5171 55.3377 18.5171Z" fill="white"/>
<path d="M60.3482 17.4053H61.6879C62.1411 17.4053 62.4671 17.3206 62.6667 17.1511C62.8679 16.98 62.9689 16.7622 62.9689 16.4939C62.9689 16.2945 62.9179 16.115 62.8176 15.953C62.7167 15.7919 62.5731 15.6648 62.3872 15.5716C62.2007 15.4793 61.9797 15.432 61.7219 15.432H60.3482V17.4053ZM60.3482 14.5545H61.5808C61.7964 14.5545 61.9899 14.5156 62.1615 14.4374C62.3346 14.36 62.4712 14.2489 62.57 14.1058C62.6699 13.9612 62.7193 13.7917 62.7193 13.5939C62.7193 13.3331 62.6266 13.1187 62.4391 12.9492C62.2522 12.7806 61.9757 12.6958 61.6073 12.6958H60.3482V14.5545ZM59.1018 18.4243V11.6904H61.7352C62.2328 11.6904 62.6469 11.766 62.9764 11.9182C63.3075 12.0702 63.5546 12.2786 63.7191 12.5413C63.8841 12.8046 63.9656 13.1027 63.9656 13.4362C63.9656 13.711 63.9121 13.9438 63.8057 14.1382C63.6972 14.3327 63.553 14.4897 63.3713 14.6103C63.1904 14.7305 62.9866 14.8173 62.764 14.8702V14.9359C63.0071 14.9484 63.2428 15.0217 63.4664 15.1538C63.6922 15.2874 63.8771 15.4744 64.0196 15.7152C64.1633 15.9564 64.2346 16.2472 64.2346 16.5896C64.2346 16.9377 64.148 17.2518 63.9763 17.5285C63.8042 17.8061 63.5444 18.0244 63.1971 18.184C62.8492 18.3445 62.4121 18.4243 61.8865 18.4243H59.1018Z" fill="white"/>
<path d="M65.3195 11.6904H66.5562V16.2805H66.6199L69.8552 11.6904H70.9732V18.4243H69.7269V13.8381H69.6693L66.4249 18.4243H65.3195V11.6904Z" fill="white"/>
<path d="M72.0234 12.7123V11.6904H77.5132V12.7123H75.3867V18.4243H74.1514V12.7123H72.0234Z" fill="white"/>
<path d="M78.5691 11.6904H79.8053V16.2805H79.869L83.1049 11.6904H84.2229V18.4243H82.976V13.8381H82.919L79.6744 18.4243H78.5691V11.6904Z" fill="white"/>
<path d="M85.5762 18.4243V11.6904H90.0507V12.7123H86.8225V14.541H89.819V15.5641H86.8225V17.4014H90.0772V18.4243H85.5762Z" fill="white"/>
<path d="M14.754 26.8739V35.8101H4.43774V26.8739L9.59641 31.9233L14.754 26.8739Z" fill="white"/>
</g>
<defs>
<clipPath id="clip0_1135_1625">
<rect width="91.4195" height="35.3604" fill="white" transform="translate(0.525452 0.449707)"/>
</clipPath>
</defs>
</svg>
