<svg width="185" height="56" viewBox="0 0 185 56" fill="none" xmlns="http://www.w3.org/2000/svg">
<path d="M6.67237 50.8255H5.0284V54.2383H3.9248V46.4821H5.0284V49.8506H6.69484L9.17203 46.4821H10.3769L7.56189 50.2383L10.512 54.2385H9.22845L6.67237 50.8256V50.8255ZM21.6335 46.4819L18.1318 52.8754C17.854 53.3851 17.5274 53.7656 17.1521 54.0166C16.7767 54.2677 16.3675 54.3934 15.9247 54.3934C15.5794 54.3934 15.2267 54.3158 14.8663 54.1607L15.1591 53.2742C15.4369 53.3702 15.6846 53.4183 15.9024 53.4183C16.3978 53.4183 16.8069 53.1598 17.1297 52.6426L17.3099 52.3656L14.1346 46.4818H15.3394L17.8953 51.4016L20.519 46.4818H21.6337L21.6335 46.4819ZM32.6087 46.4819V54.2382H31.5053V47.4459H28.0146L27.9358 49.7174C27.8983 50.7886 27.8102 51.6566 27.6713 52.3213C27.5324 52.986 27.3127 53.4866 27.0125 53.8226C26.7121 54.1588 26.3068 54.3268 25.7964 54.3268C25.5637 54.3268 25.3273 54.2973 25.087 54.2382L25.1658 53.252C25.2859 53.2816 25.4061 53.2964 25.5261 53.2964C25.8489 53.2964 26.1079 53.169 26.3031 52.9141C26.4983 52.6592 26.6446 52.2769 26.7422 51.7674C26.8398 51.2576 26.9036 50.5854 26.9336 49.7507L27.0574 46.4819H32.6086H32.6087ZM41.9849 49.1855C42.9232 49.1855 43.642 49.3923 44.1412 49.8061C44.6404 50.2198 44.89 50.8291 44.89 51.6344C44.89 52.4838 44.6216 53.1302 44.0849 53.5734C43.5481 54.0166 42.7807 54.2382 41.7823 54.2382H38.5281V46.4819H39.6429V49.1855H41.985H41.9849ZM41.7371 53.3628C42.3903 53.3628 42.8913 53.2169 43.2405 52.9252C43.5895 52.6334 43.764 52.2105 43.764 51.6566C43.764 50.5929 43.0885 50.061 41.7372 50.061H39.6429V53.3628H41.7372H41.7371ZM54.6716 47.4458H51.9691V54.2381H50.8656V47.4458H48.1745V46.4818H54.6716V47.4458ZM65.6242 46.4818L62.1224 52.8752C61.8446 53.385 61.5181 53.7655 61.1428 54.0165C60.7673 54.2676 60.3582 54.3932 59.9154 54.3932C59.57 54.3932 59.2173 54.3157 58.8569 54.1606L59.1498 53.2741C59.4276 53.3701 59.6752 53.4182 59.893 53.4182C60.3884 53.4182 60.7976 53.1597 61.1203 52.6425L61.3006 52.3655L58.1252 46.4817H59.33L61.886 51.4015L64.5096 46.4817H65.6243L65.6242 46.4818ZM73.3227 46.4818C74.3437 46.4818 75.1468 46.722 75.7323 47.2021C76.3178 47.6822 76.6106 48.3433 76.6106 49.1854C76.6106 50.0276 76.3178 50.6886 75.7323 51.1687C75.1468 51.6489 74.3436 51.889 73.3227 51.889H71.3746V54.238H70.2486V46.4817H73.3227V46.4818ZM73.2888 50.9251C74.0019 50.9251 74.5463 50.7754 74.9216 50.4763C75.2969 50.1771 75.4846 49.7469 75.4846 49.1855C75.4846 48.6241 75.2969 48.1938 74.9216 47.8947C74.5463 47.5955 74.0021 47.4459 73.2888 47.4459H71.3746V50.9252H73.2888V50.9251ZM88.419 46.4818V54.2381H87.293V50.781H82.7664V54.2381H81.6403V46.4818H82.7664V49.817H87.293V46.4818H88.419ZM97.7952 49.1854C98.7335 49.1854 99.4522 49.3922 99.9515 49.806C100.451 50.2196 100.7 50.829 100.7 51.6342C100.7 52.4837 100.432 53.1301 99.8952 53.5733C99.3584 54.0165 98.591 54.2381 97.5926 54.2381H94.3384V46.4818H95.4532V49.1854H97.7953H97.7952ZM97.5474 53.3627C98.2006 53.3627 98.7016 53.2167 99.0508 52.9251C99.3998 52.6332 99.5743 52.2103 99.5743 51.6565C99.5743 50.5927 98.8988 50.0609 97.5475 50.0609H95.4532V53.3627H97.5475H97.5474ZM101.95 46.4817H103.065V54.238H101.95V46.4817ZM108.984 46.4817H110.099V52.4651L114.761 46.4817H115.797V54.238H114.693V48.2656L110.02 54.238H108.984V46.4817ZM112.374 45.9389C111.758 45.9389 111.283 45.8077 110.949 45.5455C110.615 45.2832 110.444 44.9083 110.437 44.4208H111.236C111.244 44.7089 111.347 44.9324 111.546 45.091C111.745 45.2499 112.021 45.3293 112.373 45.3293C112.711 45.3293 112.983 45.2499 113.19 45.091C113.396 44.9322 113.503 44.7088 113.511 44.4208H114.299C114.291 44.9009 114.121 45.274 113.786 45.5399C113.453 45.8059 112.981 45.9389 112.373 45.9389H112.374ZM136.35 53.2741V55.9998H135.303V54.2381H128.513V46.4818H129.628V53.2741H134.019V46.4818H135.134V53.2741H136.35H136.35ZM147.032 53.2741V54.2381H141.312V46.4818H146.875V47.4458H142.438V49.8281H146.391V50.77H142.438V53.2741H147.032H147.032ZM159.043 46.4818V54.2381H157.917V50.781H153.391V54.2381H152.265V46.4818H153.391V49.817H157.917V46.4818H159.043ZM170.379 47.4458H167.676V54.2381H166.573V47.4458H163.882V46.4818H170.379V47.4458ZM178.291 46.4818C179.312 46.4818 180.115 46.722 180.701 47.2021C181.286 47.6822 181.579 48.3433 181.579 49.1854C181.579 50.0276 181.286 50.6886 180.701 51.1687C180.115 51.6489 179.312 51.889 178.291 51.889H176.343V54.238H175.217V46.4817H178.291V46.4818ZM178.258 50.9251C178.971 50.9251 179.515 50.7754 179.89 50.4763C180.266 50.1771 180.453 49.7469 180.453 49.1855C180.453 48.6241 180.266 48.1938 179.89 47.8947C179.515 47.5955 178.971 47.4459 178.258 47.4459H176.343V50.9252H178.258V50.9251Z" fill="black"/>
<path fill-rule="evenodd" clip-rule="evenodd" d="M47.2324 19.3772H49.2006H67.8979V19.3774C72.7891 19.3774 76.7541 15.4756 76.7541 10.6623C76.7541 5.84915 72.7891 1.94732 67.8979 1.94732V1.94708H57.073V0.010437H67.8979V0.0105585C73.8762 0.0105585 78.7224 4.77945 78.7224 10.6623C78.7224 16.4384 74.0504 21.1402 68.2222 21.309V21.3141H67.898H67.8979V21.314H49.2006V38.7446H47.2324V21.314V19.3772Z" fill="#0082FE"/>
<path d="M33.5957 33.0631C30.0342 36.5665 25.1147 38.7338 19.681 38.7338C14.2463 38.7338 9.32616 36.5658 5.76451 33.0611C2.20287 29.5564 0 24.7147 0 19.3668C0 14.019 2.20287 9.17684 5.76451 5.67227C9.31641 2.17682 14.2202 0.0115408 19.6373 -0.00012207V1.94381C14.941 1.95535 10.4825 3.7784 7.16132 7.04667C3.82955 10.3253 1.97546 14.7293 1.97546 19.3666C1.97546 24.0036 3.82968 28.408 7.16132 31.6864C10.493 34.965 14.9686 36.7895 19.6809 36.7895C24.3921 36.7895 28.8668 34.9658 32.1982 31.6888L33.5956 33.0629L33.5957 33.0631ZM22.6304 0.0104474H24.5986V1.94721H22.6304V0.0104474Z" fill="#CC0EF1"/>
<path d="M76.7691 0.0103149C82.2038 0.0103149 87.1242 2.17815 90.6858 5.68283C94.2473 9.18764 96.4503 14.0294 96.4503 19.3774C96.4503 24.7253 94.2475 29.5672 90.6858 33.072C87.1242 36.5767 82.2039 38.7446 76.7691 38.7446C71.3345 38.7446 66.4141 36.5767 62.8524 33.072C59.2909 29.5672 57.0879 24.7255 57.0879 19.3774C57.0879 14.0295 59.2909 9.18764 62.8524 5.68283C66.4141 2.17802 71.3344 0.0103149 76.7691 0.0103149ZM76.7691 1.94708C72.0536 1.94708 67.578 3.77158 64.2441 7.05224C60.9103 10.333 59.0562 14.737 59.0562 19.3773C59.0562 24.0177 60.9103 28.4217 64.2441 31.7024C67.5781 34.9832 72.0535 36.8077 76.7691 36.8077C81.4847 36.8077 85.9602 34.9829 89.2941 31.7024C92.6282 28.4216 94.4822 24.0177 94.4822 19.3773C94.4822 14.7371 92.6279 10.3329 89.2941 7.05224C85.9602 3.77146 81.4847 1.94708 76.7691 1.94708Z" fill="#CC0EF1"/>
<path d="M88.5626 38.7444V1.94708H88.5625V0.0101929H88.5626H90.5308H114.148V1.94708H90.5308V38.7444H88.5626Z" fill="#0082FE"/>
<path d="M153.51 21.3141H133.829V38.7444H131.861V21.3141V19.3773V0.010437H133.829V19.3773H153.51V0.010437H155.479V19.3773V21.3141V38.7444H153.51V21.3141Z" fill="#0082FE"/>
<path d="M123.989 38.7444V3.65544L104.308 38.7444H102.34V5.82035H104.308V34.7364L123.786 0.0101929H125.957V0.0104358V0.146624V38.7444H123.989Z" fill="#CC0EF1"/>
<path fill-rule="evenodd" clip-rule="evenodd" d="M19.6739 7.74695C22.938 7.74695 25.8926 9.05027 28.03 11.1568L26.6378 12.5258C24.8567 10.7702 22.3942 9.68383 19.6738 9.68383C14.239 9.68383 9.83316 14.0194 9.83316 19.3674C9.83316 24.7154 14.239 29.0508 19.6738 29.0508C22.3917 29.0508 24.8521 27.9667 26.633 26.2138L28.0241 27.5839C25.8872 29.6868 22.9349 30.9877 19.6739 30.9877C13.1522 30.9877 7.86523 25.7851 7.86523 19.3675C7.86523 12.9498 13.1522 7.74719 19.6739 7.74719V7.74695Z" fill="#0082FE"/>
<path d="M165.319 38.7446C159.884 38.7446 154.964 36.5767 151.402 33.072C147.841 29.5674 145.638 24.7255 145.638 19.3774C145.638 14.0295 147.841 9.18764 151.402 5.68283C154.964 2.17815 159.884 0.0103149 165.319 0.0103149V1.94708C160.603 1.94708 156.128 3.7717 152.794 7.05224C149.46 10.333 147.606 14.737 147.606 19.3773C147.606 24.0176 149.46 28.4219 152.794 31.7025C156.128 34.9832 160.603 36.8076 165.319 36.8076C170.034 36.8076 174.51 34.9831 177.844 31.7025C181.178 28.4217 183.032 24.0177 183.032 19.3773C183.032 14.737 181.178 10.3329 177.844 7.05224C176.513 5.74297 175.001 4.66598 173.364 3.84399L174.258 2.1185C176.105 3.04678 177.783 4.25352 179.236 5.68271C182.797 9.18752 185 14.0293 185 19.3773C185 24.7252 182.797 29.5672 179.236 33.0719C175.674 36.5767 170.754 38.7444 165.319 38.7444V38.7446ZM168.745 0.283298L170.662 0.719076L170.22 2.60603L168.302 2.17037L168.745 0.283298Z" fill="#CC0EF1"/>
<path d="M53.1365 1.94708H41.3277V38.7446H39.3596V1.94708H27.5508V0.010437H39.3596H41.3277H53.1365V1.94708Z" fill="#0082FE"/>
</svg>
