<svg width="144" height="10" viewBox="0 0 144 10" fill="none" xmlns="http://www.w3.org/2000/svg">
<path d="M2.37371 5.84191H1.04965V8.58437H0.160812V2.35164H1.04965V5.05847H2.39181L4.38695 2.35164H5.35733L3.09014 5.37009L5.46621 8.58446H4.4324L2.37371 5.842V5.84191ZM14.4235 2.35155L11.6032 7.48912C11.3794 7.89875 11.1164 8.20451 10.8142 8.4062C10.5118 8.60799 10.1823 8.70893 9.82559 8.70893C9.54748 8.70893 9.26339 8.64665 8.97315 8.52198L9.209 7.80962C9.43273 7.88674 9.6322 7.9254 9.8076 7.9254C10.2066 7.9254 10.5361 7.71766 10.7961 7.30207L10.9412 7.07949L8.3838 2.35145H9.35418L11.4128 6.30484L13.5258 2.35145H14.4236L14.4235 2.35155ZM23.263 2.35155V8.58427H22.3743V3.12619H19.5629L19.4994 4.95148C19.4692 5.81223 19.3982 6.50975 19.2863 7.04386C19.1745 7.57806 18.9976 7.98026 18.7558 8.25029C18.5138 8.52042 18.1874 8.65543 17.7763 8.65543C17.5889 8.65543 17.3985 8.63172 17.205 8.58427L17.2684 7.79176C17.3652 7.81558 17.4619 7.82749 17.5586 7.82749C17.8186 7.82749 18.0272 7.72508 18.1844 7.52026C18.3416 7.31545 18.4594 7.00822 18.5381 6.59878C18.6167 6.18915 18.6681 5.649 18.6922 4.97822L18.792 2.35155H23.2629H23.263ZM30.8146 4.52408C31.5703 4.52408 32.1492 4.69023 32.5513 5.02274C32.9533 5.35515 33.1544 5.84484 33.1544 6.49189C33.1544 7.17448 32.9382 7.69394 32.506 8.05007C32.0736 8.4062 31.4556 8.58427 30.6514 8.58427H28.0305V2.35155H28.9283V4.52408H30.8147H30.8146ZM30.615 7.88079C31.1411 7.88079 31.5447 7.76354 31.8259 7.52915C32.107 7.29465 32.2476 6.95482 32.2476 6.50976C32.2476 5.65496 31.7035 5.22755 30.6151 5.22755H28.9283V7.88079H30.6151H30.615ZM41.0325 3.1261H38.8559V8.58417H37.9672V3.1261H35.7997V2.35145H41.0325V3.1261ZM49.8538 2.35145L47.0335 7.48902C46.8098 7.89865 46.5468 8.20441 46.2445 8.40611C45.9421 8.6079 45.6126 8.70884 45.2559 8.70884C44.9778 8.70884 44.6937 8.64655 44.4035 8.52189L44.6393 7.80952C44.863 7.88664 45.0625 7.92531 45.2379 7.92531C45.6369 7.92531 45.9665 7.71756 46.2264 7.30197L46.3716 7.07939L43.8141 2.35135H44.7845L46.8431 6.30474L48.9561 2.35135H49.8539L49.8538 2.35145ZM56.0542 2.35145C56.8766 2.35145 57.5234 2.54445 57.995 2.93026C58.4665 3.31607 58.7024 3.84725 58.7024 4.52398C58.7024 5.20071 58.4665 5.73188 57.995 6.11769C57.5234 6.5036 56.8765 6.69651 56.0542 6.69651H54.4853V8.58407H53.5783V2.35135H56.0542V2.35145ZM56.027 5.92196C56.6013 5.92196 57.0397 5.80168 57.342 5.56133C57.6443 5.32088 57.7954 4.9752 57.7954 4.52408C57.7954 4.07295 57.6443 3.72717 57.342 3.48682C57.0397 3.24637 56.6014 3.12619 56.027 3.12619H54.4853V5.92206H56.027V5.92196ZM68.2129 2.35145V8.58417H67.306V5.80617H63.6602V8.58417H62.7533V2.35145H63.6602V5.03152H67.306V2.35145H68.2129ZM75.7645 4.52398C76.5202 4.52398 77.0991 4.69014 77.5012 5.02264C77.9033 5.35505 78.1043 5.84474 78.1043 6.49179C78.1043 7.17438 77.8881 7.69384 77.4559 8.04997C77.0236 8.4061 76.4055 8.58417 75.6014 8.58417H72.9804V2.35145H73.8783V4.52398H75.7646H75.7645ZM75.565 7.88069C76.0911 7.88069 76.4946 7.76344 76.7758 7.52905C77.0569 7.29455 77.1975 6.95472 77.1975 6.50965C77.1975 5.65486 76.6534 5.22746 75.5651 5.22746H73.8783V7.88069H75.5651H75.565ZM79.111 2.35135H80.0088V8.58407H79.111V2.35135ZM84.7762 2.35135H85.6741V7.15944L89.4286 2.35135H90.263V8.58407H89.3743V3.78487L85.6106 8.58407H84.7762V2.35135ZM87.506 1.91517C87.0102 1.91517 86.6278 1.80973 86.3588 1.59906C86.0898 1.38829 85.9522 1.08702 85.9462 0.695251H86.59C86.5961 0.926816 86.6792 1.10635 86.8394 1.23385C86.9996 1.36154 87.2218 1.42529 87.5059 1.42529C87.7779 1.42529 87.9971 1.36154 88.1634 1.23385C88.3296 1.10625 88.4157 0.926719 88.4218 0.695251H89.0567C89.0506 1.08106 88.9131 1.38087 88.644 1.59457C88.375 1.80827 87.9956 1.91517 87.5059 1.91517H87.506ZM106.817 7.80952V9.99982H105.973V8.58417H100.505V2.35145H101.403V7.80952H104.94V2.35145H105.838V7.80952H106.817H106.817ZM115.42 7.80952V8.58417H110.813V2.35145H115.294V3.1261H111.72V5.04041H114.904V5.79729H111.72V7.80952H115.42H115.42ZM125.094 2.35145V8.58417H124.187V5.80617H120.542V8.58417H119.635V2.35145H120.542V5.03152H124.187V2.35145H125.094ZM134.224 3.1261H132.047V8.58417H131.158V3.1261H128.991V2.35145H134.224V3.1261ZM140.597 2.35145C141.419 2.35145 142.066 2.54445 142.537 2.93026C143.009 3.31607 143.245 3.84725 143.245 4.52398C143.245 5.20071 143.009 5.73188 142.537 6.11769C142.066 6.5036 141.419 6.69651 140.597 6.69651H139.028V8.58407H138.121V2.35135H140.597V2.35145ZM140.569 5.92196C141.144 5.92196 141.582 5.80168 141.884 5.56133C142.187 5.32088 142.338 4.9752 142.338 4.52408C142.338 4.07295 142.187 3.72717 141.884 3.48682C141.582 3.24637 141.144 3.12619 140.569 3.12619H139.028V5.92206H140.569V5.92196Z" fill="black"/>
</svg>
