<svg width="84" height="43" viewBox="0 0 84 43" fill="none" xmlns="http://www.w3.org/2000/svg">
<g clip-path="url(#clip0_1135_1592)">
<rect width="82.7951" height="42.26" transform="translate(0.481445)" fill="#010938"/>
<path d="M21.0617 22.7905C21.0617 21.8331 21.0274 21.3592 21.0334 21.3592H21.039C21.0446 21.3592 21.3682 21.9131 21.4021 21.9709L21.8753 22.7786H22.377L22.851 21.9709C22.886 21.9131 23.2086 21.3592 23.2152 21.3592H23.22C23.2268 21.3592 23.1921 21.8331 23.1921 22.7905V23.7769H24.1436V19.737H23.2324L22.4763 20.9603C22.1818 21.4404 22.136 21.5434 22.1293 21.5434H22.1241C22.1175 21.5434 22.0719 21.4404 21.7782 20.9603L21.021 19.737H20.1101V23.7769H21.0617V22.7905Z" fill="white"/>
<path d="M27.4211 22.9005C26.7689 22.9005 26.3363 22.432 26.3363 21.7567C26.3363 21.0753 26.7689 20.6132 27.4211 20.6132C28.078 20.6132 28.5121 21.0753 28.5121 21.7567C28.5121 22.432 28.078 22.9005 27.4211 22.9005ZM27.4211 19.6558C26.2614 19.6558 25.326 20.539 25.326 21.7567C25.326 22.9734 26.2614 23.8569 27.4211 23.8569C28.5806 23.8569 29.5221 22.9734 29.5221 21.7567C29.5221 20.539 28.5806 19.6558 27.4211 19.6558Z" fill="white"/>
<path d="M42.0141 20.6132C42.6733 20.6132 43.106 21.0753 43.106 21.7567C43.106 22.432 42.6733 22.9005 42.0141 22.9005C41.3631 22.9005 40.9305 22.432 40.9305 21.7567C40.9305 21.0753 41.3631 20.6132 42.0141 20.6132ZM42.0141 23.8569C43.1746 23.8569 44.1143 22.9734 44.1143 21.7567C44.1143 20.539 43.1746 19.6558 42.0141 19.6558C40.8553 19.6558 39.9197 20.539 39.9197 21.7567C39.9197 22.9734 40.8553 23.8569 42.0141 23.8569Z" fill="white"/>
<path d="M46.2675 22.9637V22.0511H46.9424C47.2484 22.0511 47.469 22.2246 47.469 22.5069C47.469 22.773 47.2664 22.9637 46.9424 22.9637H46.2675ZM46.2675 20.5506H46.8501C47.1107 20.5506 47.3006 20.7126 47.3006 20.9316C47.3006 21.1506 47.1107 21.3125 46.8501 21.3125H46.2675V20.5506ZM48.4841 22.553C48.4841 22.1434 48.1555 21.7055 47.7743 21.6004V21.5956C48.017 21.5087 48.2763 21.1859 48.2763 20.8046C48.2763 20.2163 47.7743 19.737 47.0525 19.737H45.2978V23.7769H47.0422C48.0395 23.7769 48.4841 23.2294 48.4841 22.553Z" fill="white"/>
<path d="M66.0349 22.6525C66.4051 22.1434 66.9472 21.3762 66.9517 21.3762H66.9584C66.9645 21.3762 66.9517 21.9992 66.9517 22.8822V23.7769H67.9222V19.737H67.0113L66.1503 20.8911C65.8905 21.2381 65.2737 22.1087 65.267 22.1087H65.2611C65.2567 22.1087 65.267 21.394 65.267 20.6612V19.737H64.2987V23.7769H65.2096L66.0349 22.6525Z" fill="white"/>
<path d="M60.9339 22.6525C61.3032 22.1434 61.8455 21.3762 61.8515 21.3762H61.8574C61.8633 21.3762 61.8515 21.9992 61.8515 22.8822V23.7769H62.8219V19.737H61.9103L61.0494 20.8911C60.7894 21.2381 60.1728 22.1087 60.1675 22.1087H60.1608C60.1555 22.1087 60.1675 21.394 60.1675 20.6612V19.737H59.197V23.7769H60.1094L60.9339 22.6525Z" fill="white"/>
<path d="M23.5608 37.494H22.5903V40.564L22.5893 40.6294L22.5713 40.6266H21.0792V37.494H20.1101V41.5329H21.0792H22.5713H22.5903H23.5608H23.5667V42.2598H24.4434V41.5329H24.4463V40.564H23.5608V37.494Z" fill="white"/>
<path d="M32.4802 39.057H30.9681V37.4938H29.9991V41.5327H30.9681V39.9627H32.4802V41.5327H33.4499V37.4938H32.4802V39.057Z" fill="white"/>
<path d="M34.535 38.3986H35.746V41.5327H36.7157V38.3986H37.9446V37.4938H34.535V38.3986Z" fill="white"/>
<path d="M21.0792 29.5212H22.5903V32.6553H23.5608V28.6148H22.5903H21.0792H20.1101V32.6553H21.0792V29.5212Z" fill="white"/>
<path d="M30.1328 30.6345C30.1328 29.9545 30.5662 29.4927 31.2178 29.4927C31.8761 29.4927 32.3081 29.9545 32.3081 30.6345C32.3081 31.3101 31.8761 31.7778 31.2178 31.7778C30.5662 31.7778 30.1328 31.3101 30.1328 30.6345ZM33.318 30.6345C33.318 29.4168 32.3796 28.5335 31.2178 28.5335C30.0579 28.5335 29.1229 29.4168 29.1229 30.6345C29.1229 31.853 30.0579 32.7363 31.2178 32.7363C32.3796 32.7363 33.318 31.853 33.318 30.6345Z" fill="white"/>
<path d="M78.621 27.1222H77.0302V27.9639H78.621V27.1222Z" fill="white"/>
<path d="M44.3445 31.7778C43.6928 31.7778 43.2594 31.3101 43.2594 30.6345C43.2594 29.9545 43.6928 29.4927 44.3445 29.4927C45.0021 29.4927 45.4349 29.9545 45.4349 30.6345C45.4349 31.3101 45.0021 31.7778 44.3445 31.7778ZM44.3445 28.5335C43.3375 28.5335 42.5019 29.2194 42.2979 30.1922H41.4846V28.6147H40.5156V32.6552H41.4846V31.106H42.3083C42.5272 32.0533 43.3532 32.7363 44.3445 32.7363C45.5041 32.7363 46.4448 31.853 46.4448 30.6345C46.4448 29.4168 45.5041 28.5335 44.3445 28.5335Z" fill="white"/>
<path d="M55.4797 31.7488H53.4756V31.0331H54.9197V30.2124H53.4756V29.5212H55.4441V28.6148H52.5074V32.6553H55.4797V31.7488Z" fill="white"/>
<path d="M28.5664 40.6271H26.5627V39.9106H28.0072V39.0906H26.5627V38.3995H28.5311V37.4923H25.5941V41.5327H28.5664V40.6271Z" fill="white"/>
<path d="M58.4344 30.6413H57.8795V29.5212H58.4344C58.8083 29.5212 59.0339 29.758 59.0339 30.0589C59.0339 30.3591 58.8425 30.6421 58.4687 30.6421L58.4344 30.6413ZM58.4508 28.6148H56.9091V32.6553H57.8795V31.5477H58.4508C59.4436 31.5477 60.0439 30.8663 60.0439 30.0008C60.0439 29.1347 59.4436 28.6148 58.4508 28.6148Z" fill="white"/>
<path d="M26.554 30.6495H25.9992V29.5294H26.554C26.928 29.5294 27.1541 29.7654 27.1541 30.0663C27.1541 30.3664 26.9622 30.6495 26.5883 30.6495H26.554ZM26.5697 28.6222H25.0283V32.6626H25.9992V31.5551H26.5697C27.5633 31.5551 28.1632 30.8736 28.1632 30.0082C28.1632 29.142 27.5633 28.6222 26.5697 28.6222Z" fill="white"/>
<path d="M40.5581 39.5229H40.0032V38.4035H40.5581C40.9319 38.4035 41.1575 38.6396 41.1575 38.9405C41.1575 39.2406 40.9663 39.5237 40.5923 39.5237L40.5581 39.5229ZM40.5737 37.4964H39.0319V41.5376H40.0032V40.4293H40.5737C41.5673 40.4293 42.1676 39.7479 42.1676 38.8824C42.1676 38.0163 41.5673 37.4964 40.5737 37.4964Z" fill="white"/>
<path d="M69.6858 28.6148H68.4972L67.5804 29.586C67.17 29.9957 67.0829 30.1386 67.0776 30.1386H67.0725C67.0657 30.1386 67.0829 29.9435 67.0829 29.2732V28.6148H66.1146V32.6553H67.0829V31.317L67.424 30.9749L68.6476 32.6553H69.7901L68.0652 30.3345L69.6858 28.6148Z" fill="white"/>
<path d="M58.1254 19.7312H56.9375L56.0206 20.7028C55.6101 21.1123 55.523 21.2546 55.5179 21.2546H55.5127C55.506 21.2546 55.523 21.0595 55.523 20.3896V19.7312H54.5547V23.7715H55.523V22.4328L55.8641 22.0914L57.0878 23.7715H58.2297L56.5054 21.4508L58.1254 19.7312Z" fill="white"/>
<path d="M39.2845 19.7479H38.0965L37.1797 20.7199C36.7686 21.1292 36.6822 21.2718 36.677 21.2718H36.6718C36.665 21.2718 36.6822 21.0767 36.6822 20.4063V19.7479H35.7141V23.7886H36.6822V22.45L37.0233 22.1086L38.2471 23.7886H39.3887L37.6639 21.4681L39.2845 19.7479Z" fill="white"/>
<path d="M78.7343 28.6148L77.8748 29.7685C77.6155 30.1162 76.9966 30.9877 76.9922 30.9877H76.9862C76.9796 30.9877 76.9922 30.272 76.9922 29.5384V28.6148H76.0217V32.6553H76.9348L77.7593 31.5298C78.1288 31.0227 78.6717 30.2541 78.6762 30.2541H78.6821C78.6888 30.2541 78.6762 30.8774 78.6762 31.7608V32.6553H79.6459V28.6148H78.7343Z" fill="white"/>
<path d="M66.9011 18.2444H65.3102V19.0864H66.9011V18.2444Z" fill="white"/>
<path d="M67.0143 19.7367L66.1548 20.8908C65.895 21.2382 65.2767 22.1091 65.2723 22.1091H65.2656C65.2597 22.1091 65.2723 21.3937 65.2723 20.6602V19.7367H64.3018V23.7773H65.2141L66.0394 22.6518C66.4088 22.1445 66.951 21.3759 66.9562 21.3759H66.9622C66.9682 21.3759 66.9562 21.9994 66.9562 22.8827V23.7773H67.9259V19.7367H67.0143Z" fill="white"/>
<path d="M72.7722 29.7685C72.5146 30.1162 71.897 30.9877 71.8912 30.9877H71.8853C71.8785 30.9877 71.8912 30.272 71.8912 29.5384V28.6148H70.9207V32.6553H71.8339L72.6584 31.5298C73.0276 31.0227 73.57 30.2541 73.5758 30.2541H73.5811C73.5886 30.2541 73.5758 30.8774 73.5758 31.7608V32.6553H74.5463V28.6148H73.6331L72.7722 29.7685Z" fill="white"/>
<path d="M37.5201 31.7488H36.2659V31.6855L36.4468 29.452H37.5201V31.6855V31.7488ZM38.5106 31.6855V28.6148H35.4564L35.2753 31.6855H34.2951V32.6553H34.2989V33.519H35.2686V32.6553H35.2753H35.2954H36.2457H36.2659H37.3383H37.3592H38.308H38.3296H38.3348V33.519H39.3046V32.6553H39.309V31.6855H38.5106Z" fill="white"/>
<path d="M50.3908 31.2929C50.2239 31.57 49.8544 31.7666 49.4672 31.7666C48.8379 31.7666 48.3829 31.3331 48.3829 30.6345C48.3829 29.9716 48.7982 29.4927 49.4672 29.4927C49.7852 29.4927 50.1323 29.6365 50.3162 29.8675L51.1608 29.3848C50.7795 28.865 50.1679 28.5335 49.4672 28.5335C48.3082 28.5335 47.372 29.4168 47.372 30.6345C47.372 31.853 48.3082 32.7363 49.4672 32.7363C50.2261 32.7363 50.88 32.3579 51.2501 31.7673L50.4459 31.3071L50.3908 31.2929Z" fill="white"/>
<path d="M52.4553 22.4132C52.2891 22.6902 51.919 22.8865 51.5317 22.8865C50.9032 22.8865 50.448 22.4533 50.448 21.7552C50.448 21.0923 50.863 20.6126 51.5317 20.6126C51.8505 20.6126 52.1969 20.7564 52.3815 20.9876L53.2253 20.505C52.8448 19.9852 52.2326 19.6541 51.5317 19.6541C50.3728 19.6541 49.4373 20.5374 49.4373 21.7552C49.4373 22.9732 50.3728 23.8564 51.5317 23.8564C52.2906 23.8564 52.9453 23.4778 53.3147 22.8873L52.4553 22.4132Z" fill="white"/>
<path d="M33.6011 22.4151C33.435 22.6923 33.0647 22.8886 32.6775 22.8886C32.0489 22.8886 31.5939 22.4554 31.5939 21.7571C31.5939 21.0943 32.0087 20.6151 32.6775 20.6151C32.9963 20.6151 33.3427 20.7585 33.5273 20.9897L34.3711 20.507C33.9905 19.9872 33.3784 19.6562 32.6775 19.6562C31.5185 19.6562 30.583 20.5394 30.583 21.7571C30.583 22.9753 31.5185 23.8589 32.6775 23.8589C33.4364 23.8589 34.0903 23.4802 34.4605 22.8897L33.6011 22.4151Z" fill="white"/>
<path d="M64.0098 31.2925C63.8438 31.5696 63.4735 31.7662 63.0864 31.7662C62.4569 31.7662 62.0018 31.3326 62.0018 30.6348C62.0018 29.972 62.4175 29.493 63.0864 29.493C63.4043 29.493 63.7506 29.6368 63.9361 29.8678L64.7792 29.3851C64.3985 28.8653 63.7863 28.5338 63.0864 28.5338C61.9274 28.5338 60.9912 29.4172 60.9912 30.6348C60.9912 31.8533 61.9274 32.7358 63.0864 32.7358C63.8445 32.7358 64.4991 32.3582 64.8693 31.7669L64.0098 31.2925Z" fill="white"/>
<path d="M15.7465 -9.53674e-05V7.63235H8.11374V15.265H0.481445V27.4561H5.03981V19.8233H12.672V12.1906H20.3048V4.55838H27.9371V-9.53674e-05H15.7465Z" fill="white"/>
</g>
<defs>
<clipPath id="clip0_1135_1592">
<rect width="82.7951" height="42.26" fill="white" transform="translate(0.481445)"/>
</clipPath>
</defs>
</svg>
