<svg width="92" height="36" viewBox="0 0 92 36" fill="none" xmlns="http://www.w3.org/2000/svg">
<g clip-path="url(#clip0_1135_2018)">
<rect width="91.4195" height="35.3604" transform="translate(0.525391 0.449829)" fill="#EFEFEF"/>
<path d="M36.6314 0.489742V18.1686L18.6093 35.8102V18.0904L9.55662 26.9533L0.525391 18.1133L18.569 0.449795L36.6314 0.489742Z" fill="#121213"/>
<path d="M40.7656 0.57827H42.2912L44.3337 5.45813H44.4136L46.4561 0.57827H47.9816V7.31287H46.7861V2.68623H46.722L44.8195 7.29283H43.9273L42.0248 2.67627H41.9611V7.31287H40.7656V0.57827Z" fill="#040606"/>
<path d="M54.2331 3.94544C54.2331 3.43542 54.1516 3.00416 53.9895 2.65164C53.8265 2.30014 53.603 2.03339 53.3162 1.85241C53.0284 1.67194 52.6989 1.58081 52.3245 1.58081C51.9512 1.58081 51.62 1.67194 51.3333 1.85241C51.0471 2.03339 50.8229 2.30014 50.6599 2.65164C50.4985 3.00416 50.417 3.43542 50.417 3.94544C50.417 4.45647 50.4985 4.88774 50.6599 5.24013C50.8229 5.59163 51.0471 5.85889 51.3333 6.03936C51.62 6.21983 51.9512 6.30955 52.3245 6.30955C52.6989 6.30955 53.0284 6.21983 53.3162 6.03936C53.603 5.85889 53.8265 5.59163 53.9895 5.24013C54.1516 4.88774 54.2331 4.45647 54.2331 3.94544ZM55.486 3.94544C55.486 4.67179 55.3474 5.2931 55.0709 5.8086C54.7943 6.32461 54.418 6.71989 53.9427 6.99417C53.4665 7.26832 52.9265 7.4054 52.3245 7.4054C51.722 7.4054 51.1836 7.26832 50.7073 6.99263C50.2305 6.71746 49.8551 6.32257 49.5786 5.80503C49.301 5.28901 49.1641 4.66987 49.1641 3.94544C49.1641 3.21998 49.301 2.59931 49.5786 2.0833C49.8551 1.56728 50.2305 1.17188 50.7073 0.897729C51.1836 0.623577 51.722 0.486374 52.3245 0.486374C52.9265 0.486374 53.4665 0.623577 53.9427 0.897729C54.418 1.17188 54.7943 1.56728 55.0709 2.0833C55.3474 2.59931 55.486 3.21998 55.486 3.94544Z" fill="#040606"/>
<path d="M62.5589 2.85113H61.3023C61.2662 2.64921 61.2 2.46964 61.1032 2.31265C61.008 2.15707 60.8883 2.02344 60.7441 1.9138C60.602 1.80417 60.439 1.72184 60.2551 1.66556C60.0734 1.60966 59.8772 1.58081 59.6659 1.58081C59.293 1.58081 58.9605 1.67296 58.6716 1.85649C58.3823 2.03939 58.1571 2.30614 57.9927 2.65764C57.8297 3.01067 57.7482 3.43938 57.7482 3.94544C57.7482 4.46145 57.8297 4.89514 57.9952 5.24664C58.1597 5.59814 58.3858 5.86335 58.6736 6.04191C58.9614 6.22136 59.2915 6.30955 59.6633 6.30955C59.8685 6.30955 60.0621 6.28364 60.2429 6.22978C60.4222 6.17643 60.5851 6.09666 60.7294 5.99047C60.874 5.88582 60.9968 5.75614 61.096 5.60311C61.1949 5.44957 61.2642 5.27408 61.3023 5.07714L62.5589 5.08314C62.5121 5.40375 62.4103 5.70381 62.2543 5.98447C62.0995 6.26526 61.8952 6.513 61.6446 6.72589C61.3941 6.94031 61.1012 7.10635 60.765 7.22595C60.4283 7.34566 60.0555 7.4054 59.6454 7.4054C59.042 7.4054 58.502 7.26832 58.0272 6.99417C57.5521 6.71989 57.1777 6.32461 56.9052 5.80758C56.6311 5.29003 56.4951 4.66987 56.4951 3.94544C56.4951 3.21998 56.6327 2.59931 56.9077 2.0833C57.1842 1.56728 57.5587 1.17188 58.0334 0.897729C58.5086 0.623577 59.046 0.486374 59.6454 0.486374C60.029 0.486374 60.385 0.538828 60.7141 0.645018C61.0436 0.749675 61.3365 0.904237 61.5953 1.10615C61.8519 1.30908 62.0648 1.55733 62.2319 1.84897C62.3985 2.14213 62.507 2.47614 62.5589 2.85113Z" fill="#040606"/>
<path d="M40.7656 18.4243V11.6904H43.3456C43.8737 11.6904 44.3184 11.7865 44.6774 11.9794C45.0365 12.1724 45.3085 12.4366 45.4934 12.7732C45.6778 13.1103 45.771 13.4926 45.771 13.9198C45.771 14.3511 45.6778 14.7355 45.4924 15.0705C45.3066 15.4061 45.0325 15.6698 44.6698 15.8607C44.3067 16.0527 43.86 16.1484 43.3288 16.1484H41.6188V15.1469H43.1607C43.4704 15.1469 43.7219 15.093 43.9196 14.9882C44.1172 14.8836 44.2634 14.7376 44.3586 14.5545C44.4534 14.3701 44.5018 14.1581 44.5018 13.9198C44.5018 13.6805 44.4534 13.4702 44.3586 13.2882C44.2634 13.1062 44.1172 12.9641 43.918 12.8619C43.7199 12.7607 43.4653 12.7099 43.1545 12.7099H42.012V18.4243H40.7656Z" fill="#040606"/>
<path d="M47.0178 15.7835H50.6453V16.7641H47.0178V15.7835ZM46.9745 18.4243H45.6436L48.0655 11.6904H49.6052L52.0292 18.4243H50.7003L48.8626 13.0713H48.8075L46.9745 18.4243Z" fill="#040606"/>
<path d="M55.3381 18.5173C54.8543 18.5173 54.4249 18.436 54.0505 18.2741C53.6751 18.1104 53.3782 17.8852 53.1618 17.596C52.9443 17.3068 52.8291 16.9727 52.8154 16.5929H54.0785C54.0903 16.7748 54.1514 16.9343 54.2629 17.0685C54.3755 17.2036 54.5242 17.3078 54.7102 17.3826C54.8961 17.4563 55.1038 17.4937 55.3357 17.4937C55.5812 17.4937 55.8001 17.4524 55.9901 17.3681C56.1806 17.2834 56.3299 17.1662 56.4368 17.0141C56.5438 16.8631 56.5973 16.6886 56.5947 16.4917C56.5973 16.2872 56.5438 16.1078 56.4333 15.9517C56.3238 15.7961 56.1659 15.675 55.958 15.5868C55.7507 15.4995 55.5022 15.4557 55.2109 15.4557H54.6032V14.5148H55.2109C55.4503 14.5148 55.6601 14.475 55.8409 14.3927C56.0207 14.312 56.1633 14.1968 56.2652 14.0502C56.3681 13.9017 56.419 13.7296 56.4165 13.5352C56.419 13.3447 56.3757 13.1788 56.2881 13.0366C56.199 12.8956 56.0742 12.7849 55.9147 12.7062C55.7544 12.6278 55.5668 12.588 55.352 12.588C55.1406 12.588 54.9459 12.6254 54.7677 12.7002C54.5879 12.7749 54.4443 12.8796 54.3332 13.0167C54.2237 13.1538 54.1667 13.3174 54.159 13.5053H52.959C52.9683 13.1289 53.0803 12.7973 53.2942 12.5106C53.5081 12.224 53.7948 12.0011 54.1525 11.84C54.5105 11.6791 54.9129 11.5983 55.3586 11.5983C55.818 11.5983 56.2169 11.682 56.5565 11.8501C56.8953 12.0171 57.1575 12.2425 57.3435 12.5256C57.5294 12.8083 57.6226 13.1199 57.6226 13.4629C57.6251 13.8418 57.5115 14.1594 57.2823 14.4167C57.0522 14.6735 56.7511 14.8399 56.3798 14.9197V14.972C56.8637 15.0384 57.235 15.2128 57.4938 15.4971C57.7525 15.7802 57.8808 16.1327 57.8783 16.554C57.8783 16.9304 57.7688 17.2685 57.5513 17.5651C57.3317 17.8612 57.0318 18.0945 56.6508 18.264C56.2688 18.4326 55.8308 18.5173 55.3381 18.5173Z" fill="#040606"/>
<path d="M60.348 17.4053H61.6876C62.1409 17.4053 62.4669 17.3206 62.6665 17.1511C62.8677 16.98 62.9686 16.7622 62.9686 16.4939C62.9686 16.2945 62.9176 16.115 62.8174 15.953C62.7164 15.7919 62.5729 15.6648 62.3869 15.5716C62.2005 15.4793 61.9795 15.432 61.7217 15.432H60.348V17.4053ZM60.348 14.5545H61.5806C61.7961 14.5545 61.9896 14.5156 62.1612 14.4374C62.3344 14.36 62.4709 14.2489 62.5697 14.1058C62.6696 13.9612 62.719 13.7917 62.719 13.5939C62.719 13.3331 62.6263 13.1187 62.4388 12.9492C62.252 12.7806 61.9754 12.6958 61.6071 12.6958H60.348V14.5545ZM59.1016 18.4243V11.6904H61.735C62.2326 11.6904 62.6467 11.766 62.9762 11.9182C63.3073 12.0702 63.5543 12.2786 63.7189 12.5413C63.8838 12.8046 63.9653 13.1027 63.9653 13.4362C63.9653 13.711 63.9119 13.9438 63.8055 14.1382C63.697 14.3327 63.5528 14.4897 63.371 14.6103C63.1902 14.7305 62.9864 14.8173 62.7638 14.8702V14.9359C63.0068 14.9484 63.2426 15.0217 63.4662 15.1538C63.6919 15.2874 63.8768 15.4744 64.0193 15.7152C64.163 15.9564 64.2343 16.2472 64.2343 16.5896C64.2343 16.9377 64.1478 17.2518 63.976 17.5285C63.8039 17.8061 63.5442 18.0244 63.1968 18.184C62.8489 18.3445 62.4118 18.4243 61.8862 18.4243H59.1016Z" fill="#040606"/>
<path d="M65.3193 11.6904H66.556V16.2805H66.6197L69.855 11.6904H70.973V18.4243H69.7267V13.8381H69.6691L66.4247 18.4243H65.3193V11.6904Z" fill="#040606"/>
<path d="M72.0234 12.7123V11.6904H77.5132V12.7123H75.3867V18.4243H74.1514V12.7123H72.0234Z" fill="#040606"/>
<path d="M78.5693 11.6904H79.8056V16.2805H79.8692L83.1052 11.6904H84.2232V18.4243H82.9762V13.8381H82.9192L79.6747 18.4243H78.5693V11.6904Z" fill="#040606"/>
<path d="M85.5762 18.4243V11.6904H90.0507V12.7123H86.8225V14.541H89.819V15.5641H86.8225V17.4014H90.0772V18.4243H85.5762Z" fill="#040606"/>
<path d="M14.7538 26.874V35.8102H4.4375V26.874L9.59617 31.9234L14.7538 26.874Z" fill="#121213"/>
</g>
<defs>
<clipPath id="clip0_1135_2018">
<rect width="91.4195" height="35.3604" fill="white" transform="translate(0.525391 0.449829)"/>
</clipPath>
</defs>
</svg>
