<svg width="108" height="34" viewBox="0 0 108 34" fill="none" xmlns="http://www.w3.org/2000/svg">
<g clip-path="url(#clip0_1135_1640)">
<rect width="107.806" height="33.6355" transform="translate(0.19397 0.312012)" fill="#010938"/>
<path d="M48.5049 5.63017V3.87268C48.5049 3.74458 48.5002 3.60598 48.4912 3.45391C48.4818 3.30108 48.4703 3.14601 48.456 2.98794L48.4087 2.4553L51.8367 7.28579C51.9691 7.5405 52.1408 7.65137 52.3886 7.65137H52.6568C52.9043 7.65137 53.0766 7.5405 53.1979 7.30377L56.6033 2.47178L56.5542 3.00967C56.5314 3.26063 56.5177 5.10727 56.5135 5.81147C56.6402 5.70584 56.8141 5.57024 57.0375 5.41741C57.405 5.1657 57.7294 5.04584 57.8947 4.99565V0.311988H56.6074C56.5273 0.311988 56.4583 0.314238 56.4009 0.318733C56.3539 0.322479 56.3127 0.331466 56.2752 0.345699C56.2451 0.357686 56.2169 0.377163 56.1892 0.405631C56.1571 0.437844 56.1254 0.485791 56.0937 0.545722L53.0712 4.79039C53.0031 4.92448 52.9294 5.0818 52.8606 5.24362C52.7907 5.40843 52.7237 5.57923 52.6584 5.75528L52.5245 6.11712L52.387 5.75678C52.3099 5.55227 52.2303 5.35374 52.1497 5.16196L51.9691 4.78364L48.9273 0.562952C48.8841 0.484291 48.8524 0.435601 48.8217 0.402639C48.7969 0.375669 48.7705 0.356936 48.7423 0.345699C48.7052 0.331466 48.6632 0.322479 48.6175 0.318733C48.5585 0.314238 48.49 0.311988 48.4097 0.311988H47.1226V4.97767C47.2796 5.00764 47.5627 5.0818 47.9105 5.26159C48.1615 5.39045 48.3624 5.52529 48.5049 5.63017Z" fill="white"/>
<path d="M57.6786 9.66846L56.5177 10.7577C57.6342 11.838 59.4192 11.8612 60.5642 10.7877C61.7444 9.68045 61.8035 7.81957 60.6969 6.64042C60.16 6.06882 59.4332 5.74144 58.65 5.71597C57.8563 5.686 57.1193 5.97293 56.5482 6.50932L56.4746 6.58723L52.622 10.7877L52.4345 11.1727L52.2462 10.7877L48.3136 6.50257C47.7481 5.97218 46.9988 5.6875 46.2182 5.71597C45.4346 5.74144 44.7079 6.06882 44.1712 6.64042C43.065 7.81957 43.1243 9.68045 44.3039 10.7877C45.4489 11.8612 47.2344 11.8365 48.3504 10.7577L47.1896 9.66846C46.6752 10.1112 45.8963 10.1045 45.3905 9.63026C45.1287 9.38454 44.978 9.05116 44.9663 8.69082C44.9551 8.33123 45.0839 7.98888 45.3296 7.72668C45.5758 7.46448 45.9094 7.3139 46.2686 7.30191C46.2801 7.30191 46.2912 7.30116 46.3022 7.30116C46.637 7.30116 46.943 7.41428 47.1908 7.62779L52.1158 13.2217C52.1225 13.2224 52.2811 13.3647 52.4226 13.3647C52.5607 13.3647 52.7362 13.2292 52.7736 13.1917L57.6633 7.64202C57.9297 7.40979 58.261 7.29667 58.5977 7.30191C58.9591 7.3139 59.2927 7.46448 59.5389 7.72668C59.7846 7.98888 59.9134 8.33123 59.902 8.69082C59.8902 9.05116 59.7395 9.38454 59.4777 9.63026C58.9721 10.1052 58.194 10.112 57.6786 9.66846Z" fill="white"/>
<path d="M8.42884 23.9008C8.37556 23.9053 8.32729 23.9158 8.28383 23.9323C8.24067 23.948 8.20035 23.975 8.16355 24.0117C8.12638 24.0491 8.09146 24.0986 8.05849 24.16L5.42264 29.1029C5.3525 29.2347 5.28681 29.3718 5.22492 29.5134C5.16331 29.6557 5.10365 29.8026 5.04592 29.9546C4.97771 29.7786 4.90755 29.6085 4.83647 29.4445C4.78249 29.3343 4.72954 29.2257 4.67556 29.1156L2.00255 24.16C1.96956 24.0986 1.93589 24.0491 1.90065 24.0117C1.86572 23.975 1.82667 23.948 1.78361 23.9323C1.74044 23.9158 1.69184 23.9053 1.63851 23.9008C1.58523 23.897 1.52112 23.8948 1.44718 23.8948H0.19397V32.8179H1.65695V27.0539C1.65695 26.9431 1.65279 26.8217 1.64454 26.6899C1.63634 26.5588 1.62619 26.4247 1.61374 26.2891L4.34234 31.3743C4.46988 31.617 4.66537 31.7383 4.92877 31.7383H5.16331C5.42667 31.7383 5.62228 31.617 5.74982 31.3743L8.44757 26.3078C8.42277 26.5752 8.41048 26.824 8.41048 27.0539V32.8179H9.87344V23.8948H8.62016C8.54627 23.8948 8.48219 23.897 8.42884 23.9008Z" fill="white"/>
<path d="M20.0655 29.6737C19.9336 30.0625 19.7467 30.3921 19.5035 30.6611C19.2608 30.9307 18.9656 31.1375 18.6178 31.2813C18.27 31.4252 17.8781 31.4971 17.4418 31.4971C17.0056 31.4971 16.6138 31.4252 16.2659 31.2813C15.9182 31.1375 15.622 30.9307 15.377 30.6611C15.132 30.3921 14.9438 30.0625 14.8122 29.6737C14.6804 29.2849 14.6148 28.8459 14.6148 28.3567C14.6148 27.8667 14.6804 27.4277 14.8122 27.0389C14.9438 26.6501 15.132 26.3198 15.377 26.0486C15.622 25.7766 15.9182 25.5691 16.2659 25.4253C16.6138 25.2807 17.0056 25.2095 17.4418 25.2095C17.8781 25.2095 18.27 25.2807 18.6178 25.4253C18.9656 25.5691 19.2608 25.7766 19.5035 26.0486C19.7467 26.3198 19.9336 26.6501 20.0655 27.0389C20.1973 27.4277 20.2633 27.8667 20.2633 28.3567C20.2633 28.8459 20.1973 29.2849 20.0655 29.6737ZM21.3927 26.0111C21.2077 25.674 20.9824 25.3691 20.7167 25.0949C20.4511 24.8215 20.1519 24.5892 19.8187 24.3974C19.4851 24.2064 19.1189 24.0581 18.7197 23.9532C18.3205 23.8483 17.8946 23.7959 17.4418 23.7959C16.767 23.7959 16.1517 23.9105 15.5963 24.139C15.0406 24.3667 14.564 24.6844 14.1673 25.0919C13.77 25.4994 13.4621 25.9811 13.2442 26.5393C13.0258 27.0966 12.9169 27.7019 12.9169 28.3567C12.9169 29.0107 13.0258 29.616 13.2442 30.1734C13.4621 30.7315 13.77 31.2139 14.1673 31.6215C14.564 32.0282 15.0406 32.3459 15.5963 32.5744C16.1517 32.8029 16.767 32.9175 17.4418 32.9175C18.1211 32.9175 18.7384 32.8029 19.294 32.5744C19.8495 32.3459 20.3248 32.0282 20.7199 31.6215C21.115 31.2139 21.4207 30.7315 21.6365 30.1734C21.8529 29.616 21.9607 29.0107 21.9607 28.3567C21.9607 27.9207 21.9122 27.5049 21.8157 27.1101C21.719 26.7153 21.5781 26.349 21.3927 26.0111Z" fill="white"/>
<path d="M30.7755 30.634C30.724 30.634 30.6752 30.646 30.6283 30.6692C30.581 30.6932 30.5362 30.7239 30.4935 30.7621C30.3528 30.8902 30.2106 30.9981 30.0678 31.0857C29.9243 31.1727 29.7727 31.2446 29.6127 31.3C29.4525 31.3554 29.2773 31.3959 29.0872 31.4214C28.8971 31.4476 28.6848 31.4603 28.4496 31.4603C28.0568 31.4603 27.6892 31.3862 27.3477 31.2393C27.006 31.0917 26.7093 30.8797 26.4574 30.6018C26.2051 30.3246 26.0054 29.983 25.8582 29.577C25.7109 29.1717 25.6373 28.7087 25.6373 28.1873C25.6373 27.6711 25.7052 27.2104 25.8424 26.8074C25.9788 26.4036 26.171 26.062 26.4186 25.7825C26.6665 25.5031 26.9622 25.2896 27.3062 25.142C27.65 24.9944 28.0292 24.921 28.4433 24.921C28.6867 24.921 28.9015 24.9398 29.0872 24.975C29.2731 25.0117 29.4363 25.0566 29.5775 25.1098C29.7184 25.1638 29.8422 25.2214 29.9492 25.2859C30.0557 25.3503 30.1497 25.4087 30.2309 25.4619C30.3122 25.5159 30.3867 25.5608 30.455 25.5968C30.5235 25.6327 30.5898 25.6514 30.654 25.6514C30.7479 25.6514 30.8215 25.632 30.8748 25.593C30.9282 25.5548 30.9719 25.5106 31.0063 25.4589L31.5828 24.6581C31.2153 24.2992 30.7701 24.0093 30.2468 23.7876C29.7238 23.5651 29.1246 23.4542 28.4496 23.4542C27.7708 23.4542 27.1514 23.5703 26.5916 23.8033C26.032 24.0363 25.5507 24.3622 25.147 24.7802C24.7433 25.1982 24.4304 25.6971 24.2086 26.2755C23.9862 26.8546 23.8751 27.4913 23.8751 28.1873C23.8751 28.875 23.9789 29.5088 24.1858 30.0894C24.3933 30.6707 24.691 31.1697 25.0797 31.5884C25.4681 32.0072 25.9372 32.3331 26.4859 32.5683C27.0349 32.8035 27.6531 32.9204 28.3408 32.9204C29.1094 32.9204 29.7685 32.7968 30.3176 32.5488C30.8663 32.3016 31.3286 31.945 31.7044 31.4791L31.0256 30.7434C30.9525 30.6707 30.8694 30.634 30.7755 30.634Z" fill="white"/>
<path d="M51.7705 29.5545C51.6337 29.9583 51.4398 30.2999 51.1874 30.5793C50.9354 30.8595 50.6289 31.0738 50.268 31.2236C49.907 31.3727 49.5005 31.4476 49.0477 31.4476C48.595 31.4476 48.1879 31.3727 47.8271 31.2236C47.4663 31.0738 47.1587 30.8595 46.9045 30.5793C46.6504 30.2999 46.4548 29.9583 46.3184 29.5545C46.1815 29.1515 46.113 28.6952 46.113 28.1873C46.113 27.6794 46.1815 27.2232 46.3184 26.8201C46.4548 26.4163 46.6504 26.074 46.9045 25.7923C47.1587 25.5106 47.4663 25.2949 47.8271 25.145C48.1879 24.9959 48.595 24.921 49.0477 24.921C49.5005 24.921 49.907 24.9959 50.268 25.145C50.6289 25.2949 50.9354 25.5106 51.1874 25.7923C51.4398 26.074 51.6337 26.4163 51.7705 26.8201C51.9072 27.2232 51.9754 27.6794 51.9754 28.1873C51.9754 28.6952 51.9072 29.1515 51.7705 29.5545ZM53.148 25.7533C52.9557 25.4035 52.7218 25.0866 52.4464 24.8027C52.171 24.5187 51.8602 24.2775 51.5144 24.0782C51.1681 23.8797 50.7882 23.7261 50.3738 23.6175C49.9594 23.5081 49.5173 23.4542 49.0477 23.4542C48.3472 23.4542 47.7087 23.5726 47.1317 23.81C46.5554 24.0468 46.0607 24.3772 45.6485 24.7997C45.2365 25.2222 44.9173 25.7226 44.6907 26.301C44.4644 26.88 44.3514 27.5086 44.3514 28.1873C44.3514 28.866 44.4644 29.4953 44.6907 30.0737C44.9173 30.652 45.2365 31.1532 45.6485 31.5757C46.0607 31.9982 46.5554 32.3286 47.1317 32.5653C47.7087 32.802 48.3472 32.9204 49.0477 32.9204C49.7525 32.9204 50.3931 32.802 50.9697 32.5653C51.5463 32.3286 52.0398 31.9982 52.4499 31.5757C52.8599 31.1532 53.1769 30.652 53.401 30.0737C53.6254 29.4953 53.7373 28.866 53.7373 28.1873C53.7373 27.7348 53.6873 27.3033 53.5869 26.8935C53.4864 26.4838 53.34 26.1039 53.148 25.7533Z" fill="white"/>
<path d="M80.0461 32.8179H85.8891V31.4409H81.7757V28.8219H85.0176V27.4959H81.7757V24.9279H85.8891V23.5569H80.0461V32.8179Z" fill="white"/>
<path d="M94.0972 27.2173C94.0208 27.4285 93.9046 27.6076 93.748 27.7551C93.5921 27.9027 93.3965 28.0158 93.162 28.0945C92.9267 28.1739 92.6517 28.2136 92.3354 28.2136H91.048V24.8889H92.3354C92.6561 24.8889 92.9334 24.9264 93.1687 25.0013C93.4025 25.0754 93.5974 25.1833 93.751 25.3242C93.9054 25.4658 94.0208 25.6366 94.0972 25.8366C94.1737 26.0374 94.2126 26.2621 94.2126 26.5101C94.2126 26.77 94.1737 27.006 94.0972 27.2173ZM95.0647 24.3832C94.7702 24.1225 94.3962 23.9195 93.9436 23.7742C93.491 23.6296 92.9544 23.5569 92.3354 23.5569H89.3236V32.8179H91.048V29.5583H92.3354C92.9379 29.5583 93.464 29.4834 93.9151 29.3336C94.3655 29.1845 94.7402 28.9755 95.0392 28.7066C95.3375 28.4376 95.5623 28.1162 95.7122 27.7424C95.8613 27.3686 95.9362 26.9581 95.9362 26.5101C95.9362 26.0786 95.8643 25.6808 95.7212 25.3182C95.578 24.9556 95.36 24.6439 95.0647 24.3832Z" fill="white"/>
<path d="M97.7617 23.5569V24.9721H100.555V32.8179H102.278V24.9721H105.072V23.5569H97.7617Z" fill="white"/>
<path d="M34.3597 32.8179H36.0832V23.5569H34.3597V32.8179Z" fill="white"/>
<path d="M40.209 29.9974C39.2586 28.5755 38.887 27.9447 38.887 27.9447L41.7678 23.557H40.2944C40.1319 23.557 39.993 23.5997 39.8781 23.6851C39.7625 23.7705 39.6619 23.8813 39.5766 24.0177L36.9638 27.9627C36.9638 27.9627 37.3012 28.4406 37.7505 29.1995C37.7505 29.1995 38.2637 30.2303 39.2557 31.39C40.6321 32.9992 42.0024 32.8186 42.0024 32.8186L42.4391 31.3436C42.4391 31.3436 40.9853 31.1578 40.209 29.9974Z" fill="white"/>
<path d="M62.7187 28.072C61.68 28.0106 61.3106 27.5559 59.9393 27.3169C59.1689 27.1828 58.3992 27.1948 58.3541 27.1993V23.5569H56.6247V32.8179H58.3541C58.3541 32.8179 58.3552 28.8422 58.3552 28.6534C58.4846 28.6609 59.6379 28.5912 60.6972 29.0639C61.3452 29.3538 62.4741 29.5748 62.7047 29.5816V32.8179H64.4345V23.5569H62.7047C62.7047 23.5569 62.7168 27.8675 62.7187 28.072Z" fill="white"/>
<path d="M76.1913 32.3902C75.5895 32.2613 75.2823 31.8987 75.1361 31.7234L75.1541 31.492V23.557H73.4182V31.492H69.9201V23.557H68.1902V32.8187H73.9202C75.313 34.341 77.3116 33.8825 77.3116 33.8825L77.3094 32.3407C77.3094 32.3407 76.7428 32.5078 76.1913 32.3902Z" fill="white"/>
</g>
<defs>
<clipPath id="clip0_1135_1640">
<rect width="107.806" height="33.6355" fill="white" transform="translate(0.19397 0.312012)"/>
</clipPath>
</defs>
</svg>
