<svg width="108" height="34" viewBox="0 0 108 34" fill="none" xmlns="http://www.w3.org/2000/svg">
<g clip-path="url(#clip0_1135_2033)">
<rect width="107.806" height="33.6355" transform="translate(0.194336 0.312256)" fill="#EFEFEF"/>
<path d="M48.5054 5.63042V3.87293C48.5054 3.74482 48.5006 3.60623 48.4917 3.45415C48.4823 3.30133 48.4708 3.14625 48.4565 2.98818L48.4092 2.45554L51.8372 7.28603C51.9696 7.54074 52.1413 7.65161 52.3891 7.65161H52.6573C52.9048 7.65161 53.0771 7.54074 53.1984 7.30401L56.6038 2.47202L56.5546 3.00991C56.5319 3.26087 56.5182 5.10752 56.514 5.81171C56.6407 5.70608 56.8146 5.57048 57.038 5.41766C57.4055 5.16595 57.7298 5.04608 57.8952 4.99589V0.312232H56.6079C56.5277 0.312232 56.4588 0.314482 56.4014 0.318977C56.3544 0.322723 56.3132 0.33171 56.2757 0.345943C56.2456 0.35793 56.2173 0.377408 56.1897 0.405875C56.1576 0.438088 56.1259 0.486035 56.0942 0.545967L53.0717 4.79063C53.0036 4.92473 52.9298 5.08205 52.8611 5.24386C52.7912 5.40867 52.7242 5.57948 52.6589 5.75553L52.525 6.11736L52.3875 5.75703C52.3104 5.55251 52.2308 5.35398 52.1502 5.1622L51.9696 4.78388L48.9278 0.563196C48.8846 0.484535 48.8529 0.435845 48.8221 0.402883C48.7974 0.375914 48.771 0.357181 48.7428 0.345943C48.7057 0.33171 48.6637 0.322723 48.618 0.318977C48.559 0.314482 48.4905 0.312232 48.4102 0.312232H47.123V4.97792C47.2801 5.00788 47.5632 5.08204 47.911 5.26184C48.162 5.39069 48.3629 5.52554 48.5054 5.63042Z" fill="#121213"/>
<path d="M57.6787 9.66907L56.5178 10.7583C57.6342 11.8386 59.4193 11.8618 60.5643 10.7883C61.7445 9.68106 61.8035 7.82018 60.697 6.64103C60.1601 6.06943 59.4332 5.74205 58.65 5.71658C57.8564 5.68661 57.1194 5.97354 56.5482 6.50993L56.4746 6.58784L52.622 10.7883L52.4345 11.1734L52.2463 10.7883L48.3137 6.50318C47.7481 5.97279 46.9989 5.68811 46.2183 5.71658C45.4347 5.74205 44.7079 6.06943 44.1713 6.64103C43.065 7.82018 43.1243 9.68106 44.3039 10.7883C45.4489 11.8618 47.2344 11.8371 48.3505 10.7583L47.1896 9.66907C46.6752 10.1118 45.8964 10.1051 45.3906 9.63087C45.1288 9.38515 44.978 9.05177 44.9663 8.69143C44.9552 8.33184 45.084 7.98949 45.3296 7.72729C45.5759 7.46509 45.9094 7.31451 46.2687 7.30252C46.2802 7.30252 46.2912 7.30177 46.3023 7.30177C46.6371 7.30177 46.9431 7.4149 47.1909 7.6284L52.1159 13.2223C52.1225 13.223 52.2812 13.3654 52.4227 13.3654C52.5608 13.3654 52.7363 13.2298 52.7737 13.1923L57.6634 7.64263C57.9297 7.4104 58.261 7.29728 58.5977 7.30252C58.9592 7.31451 59.2927 7.46509 59.539 7.72729C59.7846 7.98949 59.9134 8.33184 59.902 8.69143C59.8903 9.05177 59.7396 9.38515 59.4777 9.63087C58.9721 10.1058 58.194 10.1126 57.6787 9.66907Z" fill="#121213"/>
<path d="M8.4292 23.9014C8.37592 23.9059 8.32766 23.9164 8.2842 23.9329C8.24103 23.9486 8.20071 23.9756 8.16392 24.0123C8.12675 24.0497 8.09183 24.0992 8.05885 24.1606L5.423 29.1035C5.35287 29.2353 5.28717 29.3724 5.22529 29.514C5.16367 29.6563 5.10402 29.8032 5.04629 29.9552C4.97808 29.7792 4.90792 29.6091 4.83684 29.4451C4.78286 29.335 4.72991 29.2263 4.67593 29.1162L2.00291 24.1606C1.96992 24.0992 1.93626 24.0497 1.90102 24.0123C1.86609 23.9756 1.82704 23.9486 1.78398 23.9329C1.7408 23.9164 1.69221 23.9059 1.63887 23.9014C1.5856 23.8977 1.52149 23.8954 1.44755 23.8954H0.194336V32.8185H1.65732V27.0546C1.65732 26.9437 1.65316 26.8223 1.64491 26.6905C1.63671 26.5594 1.62655 26.4253 1.61411 26.2897L4.34271 31.3749C4.47025 31.6176 4.66574 31.739 4.92914 31.739H5.16367C5.42704 31.739 5.62265 31.6176 5.75019 31.3749L8.44794 26.3084C8.42313 26.5759 8.41084 26.8246 8.41084 27.0546V32.8185H9.8738V23.8954H8.62052C8.54663 23.8954 8.48256 23.8977 8.4292 23.9014Z" fill="#121213"/>
<path d="M20.0656 29.6743C19.9337 30.0631 19.7468 30.3927 19.5036 30.6617C19.2609 30.9314 18.9658 31.1381 18.6179 31.282C18.2701 31.4258 17.8782 31.4977 17.4419 31.4977C17.0057 31.4977 16.6139 31.4258 16.266 31.282C15.9183 31.1381 15.6221 30.9314 15.3772 30.6617C15.1321 30.3927 14.9439 30.0631 14.8123 29.6743C14.6805 29.2855 14.6149 28.8465 14.6149 28.3573C14.6149 27.8674 14.6805 27.4284 14.8123 27.0395C14.9439 26.6507 15.1321 26.3204 15.3772 26.0492C15.6221 25.7772 15.9183 25.5697 16.266 25.4259C16.6139 25.2813 17.0057 25.2101 17.4419 25.2101C17.8782 25.2101 18.2701 25.2813 18.6179 25.4259C18.9658 25.5697 19.2609 25.7772 19.5036 26.0492C19.7468 26.3204 19.9337 26.6507 20.0656 27.0395C20.1974 27.4284 20.2634 27.8674 20.2634 28.3573C20.2634 28.8465 20.1974 29.2855 20.0656 29.6743ZM21.3928 26.0117C21.2079 25.6746 20.9825 25.3697 20.7169 25.0955C20.4512 24.8221 20.1521 24.5898 19.8188 24.3981C19.4852 24.207 19.119 24.0587 18.7198 23.9538C18.3206 23.8489 17.8947 23.7965 17.4419 23.7965C16.7671 23.7965 16.1518 23.9111 15.5964 24.1396C15.0407 24.3673 14.5642 24.685 14.1674 25.0925C13.7701 25.5001 13.4622 25.9817 13.2443 26.5399C13.0259 27.0972 12.917 27.7025 12.917 28.3573C12.917 29.0113 13.0259 29.6166 13.2443 30.174C13.4622 30.7321 13.7701 31.2145 14.1674 31.6221C14.5642 32.0289 15.0407 32.3465 15.5964 32.575C16.1518 32.8035 16.7671 32.9181 17.4419 32.9181C18.1212 32.9181 18.7386 32.8035 19.2942 32.575C19.8496 32.3465 20.3249 32.0289 20.72 31.6221C21.1152 31.2145 21.4208 30.7321 21.6366 30.174C21.853 29.6166 21.9609 29.0113 21.9609 28.3573C21.9609 27.9213 21.9123 27.5055 21.8159 27.1107C21.7191 26.7159 21.5782 26.3496 21.3928 26.0117Z" fill="#121213"/>
<path d="M30.7755 30.6346C30.724 30.6346 30.6751 30.6466 30.6282 30.6698C30.5809 30.6938 30.5362 30.7245 30.4934 30.7627C30.3527 30.8908 30.2106 30.9987 30.0677 31.0864C29.9242 31.1733 29.7726 31.2452 29.6126 31.3006C29.4524 31.356 29.2772 31.3965 29.0872 31.422C28.897 31.4482 28.6847 31.4609 28.4496 31.4609C28.0567 31.4609 27.6892 31.3868 27.3477 31.2399C27.006 31.0924 26.7093 30.8803 26.4573 30.6024C26.205 30.3252 26.0054 29.9836 25.8581 29.5776C25.7109 29.1723 25.6373 28.7093 25.6373 28.1879C25.6373 27.6718 25.7052 27.211 25.8423 26.808C25.9788 26.4042 26.171 26.0626 26.4186 25.7832C26.6664 25.5037 26.9621 25.2902 27.3062 25.1426C27.6499 24.9951 28.0292 24.9216 28.4432 24.9216C28.6867 24.9216 28.9015 24.9404 29.0872 24.9756C29.2731 25.0123 29.4362 25.0572 29.5775 25.1104C29.7184 25.1644 29.8422 25.222 29.9491 25.2865C30.0557 25.3509 30.1496 25.4093 30.2309 25.4625C30.3121 25.5165 30.3867 25.5614 30.4549 25.5974C30.5234 25.6333 30.5898 25.6521 30.6539 25.6521C30.7478 25.6521 30.8215 25.6326 30.8748 25.5936C30.9281 25.5554 30.9719 25.5112 31.0062 25.4595L31.5828 24.6587C31.2153 24.2999 30.7701 24.0099 30.2468 23.7882C29.7238 23.5657 29.1246 23.4548 28.4496 23.4548C27.7708 23.4548 27.1513 23.5709 26.5915 23.8039C26.032 24.0369 25.5506 24.3628 25.1469 24.7808C24.7432 25.1988 24.4304 25.6978 24.2086 26.2761C23.9861 26.8552 23.875 27.492 23.875 28.1879C23.875 28.8756 23.9788 29.5094 24.1857 30.09C24.3933 30.6713 24.6909 31.1703 25.0796 31.589C25.4681 32.0078 25.9371 32.3337 26.4859 32.5689C27.0349 32.8042 27.6531 32.921 28.3408 32.921C29.1093 32.921 29.7684 32.7974 30.3175 32.5494C30.8662 32.3022 31.3286 31.9456 31.7043 31.4797L31.0255 30.744C30.9525 30.6713 30.8694 30.6346 30.7755 30.6346Z" fill="#121213"/>
<path d="M51.7707 29.5551C51.6338 29.9589 51.44 30.3005 51.1876 30.5799C50.9356 30.8601 50.6291 31.0744 50.2682 31.2242C49.9072 31.3733 49.5007 31.4482 49.0478 31.4482C48.5952 31.4482 48.1881 31.3733 47.8272 31.2242C47.4665 31.0744 47.1589 30.8601 46.9047 30.5799C46.6505 30.3005 46.455 29.9589 46.3186 29.5551C46.1817 29.1521 46.1132 28.6958 46.1132 28.1879C46.1132 27.68 46.1817 27.2238 46.3186 26.8207C46.455 26.4169 46.6505 26.0746 46.9047 25.7929C47.1589 25.5112 47.4665 25.2955 47.8272 25.1456C48.1881 24.9966 48.5952 24.9216 49.0478 24.9216C49.5007 24.9216 49.9072 24.9966 50.2682 25.1456C50.6291 25.2955 50.9356 25.5112 51.1876 25.7929C51.44 26.0746 51.6338 26.4169 51.7707 26.8207C51.9074 27.2238 51.9756 27.68 51.9756 28.1879C51.9756 28.6958 51.9074 29.1521 51.7707 29.5551ZM53.1482 25.7539C52.9559 25.4041 52.722 25.0872 52.4466 24.8033C52.1712 24.5194 51.8604 24.2781 51.5145 24.0789C51.1683 23.8803 50.7884 23.7268 50.374 23.6181C49.9595 23.5088 49.5175 23.4548 49.0478 23.4548C48.3474 23.4548 47.7089 23.5732 47.1319 23.8107C46.5556 24.0474 46.0608 24.3778 45.6487 24.8003C45.2367 25.2228 44.9175 25.7232 44.6909 26.3016C44.4646 26.8807 44.3516 27.5092 44.3516 28.1879C44.3516 28.8666 44.4646 29.4959 44.6909 30.0743C44.9175 30.6526 45.2367 31.1538 45.6487 31.5763C46.0608 31.9988 46.5556 32.3292 47.1319 32.5659C47.7089 32.8027 48.3474 32.921 49.0478 32.921C49.7526 32.921 50.3933 32.8027 50.9699 32.5659C51.5465 32.3292 52.04 31.9988 52.4501 31.5763C52.8601 31.1538 53.1771 30.6526 53.4012 30.0743C53.6256 29.4959 53.7375 28.8666 53.7375 28.1879C53.7375 27.7354 53.6875 27.3039 53.5871 26.8941C53.4866 26.4844 53.3402 26.1045 53.1482 25.7539Z" fill="#121213"/>
<path d="M80.0469 32.8185H85.8899V31.4416H81.7765V28.8225H85.0183V27.4965H81.7765V24.9285H85.8899V23.5575H80.0469V32.8185Z" fill="#121213"/>
<path d="M94.0978 27.2179C94.0214 27.4291 93.9052 27.6082 93.7486 27.7558C93.5927 27.9033 93.3972 28.0165 93.1626 28.0951C92.9273 28.1745 92.6523 28.2142 92.336 28.2142H91.0486V24.8895H92.336C92.6568 24.8895 92.934 24.927 93.1693 25.0019C93.4032 25.0761 93.598 25.1839 93.7516 25.3248C93.906 25.4664 94.0214 25.6372 94.0978 25.8372C94.1743 26.038 94.2132 26.2627 94.2132 26.5107C94.2132 26.7706 94.1743 27.0066 94.0978 27.2179ZM95.0653 24.3838C94.7708 24.1231 94.3968 23.9201 93.9442 23.7748C93.4916 23.6302 92.955 23.5575 92.336 23.5575H89.3242V32.8185H91.0486V29.5589H92.336C92.9385 29.5589 93.4646 29.484 93.9157 29.3342C94.3661 29.1851 94.7408 28.9761 95.0398 28.7072C95.3381 28.4382 95.5629 28.1168 95.7128 27.743C95.8619 27.3692 95.9368 26.9587 95.9368 26.5107C95.9368 26.0792 95.8649 25.6814 95.7218 25.3188C95.5786 24.9562 95.3606 24.6446 95.0653 24.3838Z" fill="#121213"/>
<path d="M97.7617 23.5575V24.9727H100.555V32.8185H102.278V24.9727H105.072V23.5575H97.7617Z" fill="#121213"/>
<path d="M34.3604 32.8185H36.0838V23.5575H34.3604V32.8185Z" fill="#121213"/>
<path d="M40.2091 29.9979C39.2586 28.576 38.887 27.9452 38.887 27.9452L41.7679 23.5574H40.2945C40.132 23.5574 39.9931 23.6001 39.8782 23.6855C39.7625 23.771 39.662 23.8818 39.5766 24.0182L36.9639 27.9632C36.9639 27.9632 37.3012 28.4411 37.7506 29.2C37.7506 29.2 38.2638 30.2308 39.2558 31.3905C40.6322 32.9997 42.0025 32.8191 42.0025 32.8191L42.4391 31.3441C42.4391 31.3441 40.9853 31.1583 40.2091 29.9979Z" fill="#121213"/>
<path d="M62.719 28.0726C61.6803 28.0112 61.3109 27.5565 59.9396 27.3175C59.1692 27.1834 58.3996 27.1954 58.3544 27.1999V23.5575H56.625V32.8185H58.3544C58.3544 32.8185 58.3555 28.8428 58.3555 28.654C58.4849 28.6615 59.6382 28.5918 60.6975 29.0645C61.3455 29.3544 62.4744 29.5754 62.705 29.5822V32.8185H64.4348V23.5575H62.705C62.705 23.5575 62.7171 27.8681 62.719 28.0726Z" fill="#121213"/>
<path d="M76.1915 32.3907C75.5898 32.2618 75.2825 31.8992 75.1364 31.7239L75.1544 31.4924V23.5575H73.4184V31.4924H69.9203V23.5575H68.1904V32.8192H73.9204C75.3132 34.3414 77.3119 33.883 77.3119 33.883L77.3096 32.3412C77.3096 32.3412 76.7431 32.5083 76.1915 32.3907Z" fill="#121213"/>
</g>
<defs>
<clipPath id="clip0_1135_2033">
<rect width="107.806" height="33.6355" fill="white" transform="translate(0.194336 0.312256)"/>
</clipPath>
</defs>
</svg>
